<svg width="18" height="18" viewBox="0 0 18 18" fill="none" xmlns="http://www.w3.org/2000/svg">
<g clip-path="url(#clip0_795_5624)">
<path d="M2.72835 9.53055C2.65877 9.46101 2.61549 9.36517 2.61549 9.25915C2.61549 9.04712 2.78732 8.87537 2.99945 8.87537L15.6255 8.87537C15.8377 8.87537 16.0095 9.04712 16.0095 9.25915C16.0095 9.47119 15.8377 9.64293 15.6255 9.64293L2.99988 9.64335C2.89381 9.64335 2.79793 9.6001 2.72835 9.53055Z" fill="#262626"/>
<path d="M9.65425 15.2267C9.50449 15.077 9.50449 14.8336 9.65425 14.6839L15.0819 9.25881L9.65425 3.83374C9.50449 3.68404 9.50449 3.44063 9.65425 3.29093C9.80402 3.14124 10.0475 3.14124 10.1973 3.29093L15.8964 8.98741C16.0462 9.1371 16.0462 9.38052 15.8964 9.53021L10.1973 15.2267C10.0475 15.3764 9.80402 15.3764 9.65425 15.2267Z" fill="#262626"/>
</g>
<defs>
<clipPath id="clip0_795_5624">
<rect width="11.9972" height="11.9972" fill="white" transform="matrix(0.707272 0.706941 -0.707272 0.706941 9.31641 0.777344)"/>
</clipPath>
</defs>
</svg>
