<svg width="17" height="17" viewBox="0 0 17 17" fill="none" xmlns="http://www.w3.org/2000/svg">
<g clip-path="url(#clip0_1021_12194)">
<path d="M1.89827 8.75654C1.82869 8.68696 1.78541 8.59108 1.78541 8.48501C1.78541 8.27288 1.95724 8.10105 2.16937 8.10105L14.7955 8.10105C15.0076 8.10105 15.1794 8.27288 15.1794 8.48501C15.1794 8.69715 15.0076 8.86897 14.7955 8.86897L2.1698 8.8694C2.06373 8.8694 1.96785 8.82612 1.89827 8.75654Z" fill="#F8F5F0"/>
<path d="M8.82808 14.4551C8.67832 14.3053 8.67831 14.0618 8.82808 13.912L14.2557 8.48439L8.82808 3.05677C8.67832 2.90701 8.67832 2.66348 8.82808 2.51372C8.97785 2.36395 9.22137 2.36395 9.37114 2.51372L15.0703 8.21286C15.22 8.36262 15.22 8.60615 15.0703 8.75591L9.37114 14.4551C9.22137 14.6048 8.97785 14.6048 8.82808 14.4551Z" fill="#F8F5F0"/>
</g>
<defs>
<clipPath id="clip0_1021_12194">
<rect width="12" height="12" fill="white" transform="translate(8.48438) rotate(45)"/>
</clipPath>
</defs>
</svg>
