<svg width="12" height="13" viewBox="0 0 12 13" fill="none" xmlns="http://www.w3.org/2000/svg">
<path d="M1.53664 11.4271C1.43824 11.4271 1.33984 11.3899 1.26484 11.3149C1.11484 11.1649 1.11484 10.9219 1.26484 10.7719L10.1928 1.84395C10.3428 1.69395 10.5858 1.69395 10.7358 1.84395C10.8858 1.99395 10.8858 2.23695 10.7358 2.38695L1.80844 11.3149C1.73344 11.3899 1.63504 11.4271 1.53664 11.4271Z" fill="url(#paint0_linear_795_4723)"/>
<path d="M10.4633 10.5583C10.2515 10.5583 10.0793 10.3861 10.0793 10.1743V2.49847H2.40353C2.19173 2.49847 2.01953 2.32627 2.01953 2.11447C2.01953 1.90267 2.19173 1.73047 2.40353 1.73047H10.4633C10.6751 1.73047 10.8473 1.90267 10.8473 2.11447V10.1743C10.8473 10.3861 10.6751 10.5583 10.4633 10.5583Z" fill="url(#paint1_linear_795_4723)"/>
<defs>
<linearGradient id="paint0_linear_795_4723" x1="1.83106" y1="1.53753" x2="11.1389" y2="12.0092" gradientUnits="userSpaceOnUse">
<stop stop-color="#B5853A"/>
<stop offset="1" stop-color="#A46D29"/>
</linearGradient>
<linearGradient id="paint1_linear_795_4723" x1="2.63748" y1="1.55391" x2="11.1122" y2="11.0879" gradientUnits="userSpaceOnUse">
<stop stop-color="#B5853A"/>
<stop offset="1" stop-color="#A46D29"/>
</linearGradient>
</defs>
</svg>
