<svg width="18" height="18" viewBox="0 0 18 18" fill="none" xmlns="http://www.w3.org/2000/svg">
<g clip-path="url(#clip0_1021_12160)">
<path d="M2.7303 9.37764C2.66072 9.30806 2.61745 9.21217 2.61745 9.10611C2.61745 8.89397 2.78927 8.72215 3.0014 8.72215L15.6275 8.72215C15.8396 8.72215 16.0115 8.89398 16.0115 9.10611C16.0115 9.31824 15.8396 9.49007 15.6275 9.49007L3.00183 9.49049C2.89576 9.49049 2.79988 9.44721 2.7303 9.37764Z" fill="#F8F5F0"/>
<path d="M9.66011 15.0761C9.51035 14.9264 9.51035 14.6829 9.66011 14.5331L15.0877 9.10548L9.66011 3.67787C9.51035 3.5281 9.51035 3.28458 9.66011 3.13481C9.80988 2.98505 10.0534 2.98505 10.2032 3.13481L15.9023 8.83395C16.0521 8.98372 16.0521 9.22724 15.9023 9.37701L10.2032 15.0761C10.0534 15.2259 9.80988 15.2259 9.66011 15.0761Z" fill="#F8F5F0"/>
</g>
<defs>
<clipPath id="clip0_1021_12160">
<rect width="12" height="12" fill="white" transform="translate(9.31641 0.621094) rotate(45)"/>
</clipPath>
</defs>
</svg>
