<svg width="16" height="16" viewBox="0 0 16 16" fill="none" xmlns="http://www.w3.org/2000/svg">
<g clip-path="url(#clip0_795_4109)">
<path d="M6.90625 9.4375H9.09619V10.3765H6.90625V9.4375Z" fill="#A46E29"/>
<path d="M12.5284 10.3761H10.0325V11.3143H5.96753V10.3761H3.47156C2.06372 10.3761 0.807983 9.71301 0 8.68262V15.0927H16V8.68262C15.192 9.71301 13.9363 10.3761 12.5284 10.3761Z" fill="#A46E29"/>
<path d="M3.47156 9.43823H5.96753V8.5H10.0325V9.43823H12.5284C14.423 9.43823 15.9678 7.91296 16 6.026V2.84521H11.2188V0.96875H4.78125V2.84521H0V6.02588C0.0322266 7.91296 1.57703 9.43823 3.47156 9.43823ZM5.71875 1.90625H10.2812V2.84521H5.71875V1.90625Z" fill="#A46E29"/>
</g>
<defs>
<clipPath id="clip0_795_4109">
<rect width="16" height="16" fill="white"/>
</clipPath>
</defs>
</svg>
