<svg width="40" height="40" viewBox="0 0 40 40" fill="none" xmlns="http://www.w3.org/2000/svg">
<g clip-path="url(#clip0_795_4398)">
<path d="M1.11125 25.5908H5.55542C6.16903 25.5908 6.66667 26.0881 6.66667 26.7017V37.8129C6.66667 38.4265 6.16903 38.9242 5.55542 38.9242H1.11125C0.49764 38.9242 0 38.4265 0 37.8129V26.7017C0 26.0881 0.49764 25.5908 1.11125 25.5908Z" fill="white"/>
<path d="M12.2202 16.7012H16.6648C17.2784 16.7012 17.776 17.1988 17.776 17.8124V37.8124C17.776 38.426 17.2784 38.9237 16.6648 38.9237H12.2202C11.6066 38.9237 11.1094 38.426 11.1094 37.8124V17.8124C11.1094 17.1988 11.6066 16.7012 12.2202 16.7012Z" fill="white"/>
<path d="M23.3339 21.1455H27.7785C28.3921 21.1455 28.8893 21.6431 28.8893 22.2568V37.8122C28.8893 38.4258 28.3921 38.9234 27.7785 38.9234H23.3339C22.7203 38.9234 22.2227 38.4258 22.2227 37.8122V22.2568C22.2227 21.6431 22.7203 21.1455 23.3339 21.1455Z" fill="white"/>
<path d="M34.4472 14.4795H38.8914C39.505 14.4795 40.0026 14.9771 40.0026 15.5907V37.8128C40.0026 38.4264 39.505 38.9241 38.8914 38.9241H34.4472C33.8336 38.9241 33.3359 38.4264 33.3359 37.8128V15.5907C33.3359 14.9771 33.8336 14.4795 34.4472 14.4795Z" fill="white"/>
<path d="M36.6667 1.14551C34.8267 1.14754 33.3354 2.63883 33.3333 4.47884C33.3378 4.8418 33.4021 5.2015 33.5238 5.54329L27.9614 8.84977C27.2314 8.07544 26.1731 7.70028 25.1184 7.84147C24.0633 7.98267 23.1413 8.62313 22.6404 9.56226L17.7344 7.13224C17.7584 6.98942 17.7726 6.84538 17.7779 6.70093C17.7804 5.35164 16.9694 4.1342 15.7235 3.61621C14.4775 3.09863 13.0424 3.38306 12.0882 4.33683C11.1336 5.29061 10.8484 6.72534 11.3656 7.97168L5.00163 12.721C4.49707 12.4203 3.9209 12.26 3.33333 12.2568C1.49251 12.2568 0 13.7489 0 15.5901C0 17.4309 1.49251 18.9234 3.33333 18.9234C5.17415 18.9234 6.66667 17.4309 6.66667 15.5901C6.66382 15.1889 6.58813 14.7922 6.44328 14.4182L12.8707 9.62126C14.128 10.3223 15.6962 10.1169 16.7301 9.11507L22.3092 11.8783C22.6811 13.5348 24.2399 14.6465 25.9273 14.4585C27.6147 14.2705 28.8908 12.8435 28.8888 11.1455C28.8888 11.0609 28.87 10.9811 28.8639 10.8981L34.9137 7.30151C35.4382 7.63314 36.0457 7.81014 36.6667 7.81217C38.5075 7.81217 40 6.31966 40 4.47884C40 2.63802 38.5075 1.14551 36.6667 1.14551Z" fill="white"/>
</g>
<defs>
<clipPath id="clip0_795_4398">
<rect width="40" height="40" fill="white"/>
</clipPath>
</defs>
</svg>
