<svg width="18" height="18" viewBox="0 0 18 18" fill="none" xmlns="http://www.w3.org/2000/svg">
<path d="M10.5043 11.0278C10.0565 11.3264 9.53631 11.4842 9 11.4842C8.46373 11.4842 7.94356 11.3264 7.49574 11.0278L0.119848 6.1104C0.0789258 6.08312 0.0390586 6.05468 0 6.02543V14.0831C0 15.007 0.749707 15.7402 1.65702 15.7402H16.3429C17.2668 15.7402 18 14.9904 18 14.0831V6.02539C17.9608 6.05471 17.9209 6.08322 17.8799 6.11054L10.5043 11.0278Z" fill="#F8F5F0"/>
<path d="M0.704883 5.2337L8.08077 10.1511C8.35998 10.3373 8.67997 10.4304 8.99996 10.4304C9.31999 10.4304 9.64002 10.3373 9.91923 10.1511L17.2951 5.2337C17.7365 4.93962 18 4.44743 18 3.91622C18 3.00283 17.2569 2.25977 16.3435 2.25977H1.65646C0.743098 2.2598 0 3.00286 0 3.9171C0 4.44743 0.263531 4.93962 0.704883 5.2337Z" fill="#F8F5F0"/>
</svg>
