<svg width="18" height="19" viewBox="0 0 18 19" fill="none" xmlns="http://www.w3.org/2000/svg">
<path d="M10.5043 11.6059C10.0565 11.9045 9.53631 12.0623 9 12.0623C8.46373 12.0623 7.94356 11.9045 7.49574 11.6059L0.119848 6.68852C0.0789258 6.66124 0.0390586 6.6328 0 6.60355V14.6613C0 15.5851 0.749707 16.3183 1.65702 16.3183H16.3429C17.2668 16.3183 18 15.5686 18 14.6613V6.60352C17.9608 6.63284 17.9209 6.66135 17.8799 6.68866L10.5043 11.6059Z" fill="url(#paint0_linear_795_4698)"/>
<path d="M0.704883 5.81183L8.08077 10.7293C8.35998 10.9154 8.67997 11.0085 8.99996 11.0085C9.31999 11.0085 9.64002 10.9154 9.91923 10.7293L17.2951 5.81183C17.7365 5.51775 18 5.02556 18 4.49435C18 3.58095 17.2569 2.83789 16.3435 2.83789H1.65646C0.743098 2.83793 0 3.58099 0 4.49523C0 5.02556 0.263531 5.51775 0.704883 5.81183Z" fill="url(#paint1_linear_795_4698)"/>
<defs>
<linearGradient id="paint0_linear_795_4698" x1="1.26" y1="6.40922" x2="8.58466" y2="21.6771" gradientUnits="userSpaceOnUse">
<stop stop-color="#A46E29"/>
<stop offset="1" stop-color="#F7E47F"/>
</linearGradient>
<linearGradient id="paint1_linear_795_4698" x1="1.26" y1="2.67448" x2="6.7413" y2="16.2593" gradientUnits="userSpaceOnUse">
<stop stop-color="#A46E29"/>
<stop offset="1" stop-color="#F7E47F"/>
</linearGradient>
</defs>
</svg>
