<svg width="24" height="24" viewBox="0 0 24 24" fill="none" xmlns="http://www.w3.org/2000/svg">
<path d="M14.0057 14.705C13.4086 15.1031 12.7151 15.3135 12 15.3135C11.285 15.3135 10.5914 15.1031 9.99431 14.705L0.159797 8.1485C0.105234 8.11213 0.0520781 8.0742 0 8.0352V18.7788C0 20.0106 0.999609 20.9882 2.20936 20.9882H21.7906C23.0224 20.9882 24 19.9886 24 18.7788V8.03516C23.9478 8.07425 23.8945 8.11227 23.8398 8.14869L14.0057 14.705Z" fill="#A46E29"/>
<path d="M0.939844 6.97697L10.7744 13.5336C11.1466 13.7818 11.5733 13.9058 12 13.9058C12.4267 13.9058 12.8534 13.7817 13.2256 13.5336L23.0602 6.97697C23.6487 6.58486 24 5.92861 24 5.22033C24 4.00247 23.0092 3.01172 21.7914 3.01172H2.20861C0.990797 3.01177 0 4.00252 0 5.2215C0 5.92861 0.351375 6.58486 0.939844 6.97697Z" fill="#A46E29"/>
</svg>
