<svg width="16" height="16" viewBox="0 0 16 16" fill="none" xmlns="http://www.w3.org/2000/svg">
<path d="M2.04756 14.4647C1.91636 14.4647 1.78516 14.4151 1.68516 14.3151C1.48516 14.1151 1.48516 13.7911 1.68516 13.5911L13.5892 1.68711C13.7892 1.48711 14.1132 1.48711 14.3132 1.68711C14.5132 1.88711 14.5132 2.21111 14.3132 2.41111L2.40996 14.3151C2.30996 14.4151 2.17876 14.4647 2.04756 14.4647Z" fill="#A46E29"/>
<path d="M13.9537 13.3075C13.6713 13.3075 13.4417 13.0779 13.4417 12.7955V2.56111H3.20731C2.92491 2.56111 2.69531 2.33151 2.69531 2.04911C2.69531 1.76671 2.92491 1.53711 3.20731 1.53711H13.9537C14.2361 1.53711 14.4657 1.76671 14.4657 2.04911V12.7955C14.4657 13.0779 14.2361 13.3075 13.9537 13.3075Z" fill="#A46E29"/>
</svg>
