<svg width="46" height="46" viewBox="0 0 46 46" fill="none" xmlns="http://www.w3.org/2000/svg">
<circle cx="23" cy="23" r="23" fill="url(#paint0_linear_795_3117)"/>
<g clip-path="url(#clip0_795_3117)">
<path d="M32.9832 19.5861C32.9387 18.5765 32.7754 17.8825 32.5416 17.2811C32.3003 16.6427 31.9291 16.0711 31.4429 15.596C30.9677 15.1135 30.3924 14.7386 29.7614 14.5011C29.1566 14.2672 28.4661 14.104 27.4566 14.0594C26.4395 14.0112 26.1166 14 23.537 14C20.9574 14 20.6345 14.0112 19.6212 14.0557C18.6117 14.1002 17.9176 14.2636 17.3164 14.4973C16.6778 14.7386 16.1063 15.1097 15.6312 15.596C15.1487 16.0711 14.7739 16.6464 14.5362 17.2774C14.3024 17.8825 14.1391 18.5727 14.0946 19.5823C14.0463 20.5994 14.0352 20.9223 14.0352 23.5019C14.0352 26.0815 14.0463 26.4043 14.0908 27.4177C14.1353 28.4272 14.2987 29.1213 14.5326 29.7227C14.7739 30.361 15.1487 30.9326 15.6312 31.4077C16.1063 31.8902 16.6816 32.2651 17.3126 32.5026C17.9176 32.7365 18.6079 32.8998 19.6176 32.9443C20.6308 32.9889 20.9538 32.9999 23.5334 32.9999C26.113 32.9999 26.4359 32.9889 27.4492 32.9443C28.4587 32.8998 29.1528 32.7365 29.7541 32.5026C31.0309 32.009 32.0405 30.9994 32.5342 29.7227C32.7679 29.1176 32.9313 28.4272 32.9758 27.4177C33.0203 26.4043 33.0315 26.0815 33.0315 23.5019C33.0315 20.9223 33.0277 20.5994 32.9832 19.5861ZM31.2722 27.3434C31.2313 28.2713 31.0755 28.7724 30.9456 29.1065C30.6263 29.9342 29.9694 30.5911 29.1416 30.9104C28.8076 31.0403 28.3029 31.1962 27.3786 31.2369C26.3764 31.2816 26.0759 31.2926 23.5408 31.2926C21.0057 31.2926 20.7014 31.2816 19.7028 31.2369C18.7749 31.1962 18.2738 31.0403 17.9398 30.9104C17.5279 30.7582 17.153 30.5169 16.8486 30.2014C16.5331 29.8933 16.2919 29.5221 16.1396 29.1102C16.0097 28.7762 15.8539 28.2713 15.8131 27.3472C15.7685 26.345 15.7575 26.0443 15.7575 23.5093C15.7575 20.9742 15.7685 20.6698 15.8131 19.6714C15.8539 18.7435 16.0097 18.2425 16.1396 17.9084C16.2919 17.4964 16.5331 17.1216 16.8524 16.8171C17.1603 16.5016 17.5315 16.2603 17.9436 16.1083C18.2776 15.9783 18.7825 15.8225 19.7066 15.7816C20.7088 15.7371 21.0095 15.7259 23.5444 15.7259C26.0833 15.7259 26.3838 15.7371 27.3824 15.7816C28.3103 15.8225 28.8113 15.9783 29.1454 16.1083C29.5573 16.2603 29.9322 16.5016 30.2366 16.8171C30.5521 17.1252 30.7933 17.4964 30.9456 17.9084C31.0755 18.2425 31.2313 18.7472 31.2722 19.6714C31.3167 20.6736 31.3279 20.9742 31.3279 23.5093C31.3279 26.0443 31.3167 26.3413 31.2722 27.3434Z" fill="#F8F5F0"/>
<path d="M23.5371 18.6211C20.8425 18.6211 18.6562 20.8072 18.6562 23.5019C18.6562 26.1967 20.8425 28.3828 23.5371 28.3828C26.2318 28.3828 28.4179 26.1967 28.4179 23.5019C28.4179 20.8072 26.2318 18.6211 23.5371 18.6211ZM23.5371 26.668C21.789 26.668 20.371 25.2502 20.371 23.5019C20.371 21.7537 21.789 20.3359 23.5371 20.3359C25.2853 20.3359 26.7032 21.7537 26.7032 23.5019C26.7032 25.2502 25.2853 26.668 23.5371 26.668Z" fill="#F8F5F0"/>
<path d="M29.7478 18.4285C29.7478 19.0578 29.2376 19.568 28.6082 19.568C27.979 19.568 27.4688 19.0578 27.4688 18.4285C27.4688 17.7991 27.979 17.2891 28.6082 17.2891C29.2376 17.2891 29.7478 17.7991 29.7478 18.4285Z" fill="#F8F5F0"/>
</g>
<defs>
<linearGradient id="paint0_linear_795_3117" x1="3.22" y1="-0.92" x2="47.38" y2="48.76" gradientUnits="userSpaceOnUse">
<stop stop-color="#A46E29"/>
<stop offset="1" stop-color="#F7E47F"/>
</linearGradient>
<clipPath id="clip0_795_3117">
<rect width="19" height="19" fill="white" transform="translate(14 14)"/>
</clipPath>
</defs>
</svg>
