<svg width="43" height="42" viewBox="0 0 43 42" fill="none" xmlns="http://www.w3.org/2000/svg">
<circle cx="21.5" cy="21" r="20.5" stroke="#F8F5F0"/>
<g clip-path="url(#clip0_1412_1462)">
<path d="M30.3609 17.171C30.3188 16.2145 30.1641 15.557 29.9425 14.9873C29.714 14.3825 29.3624 13.841 28.9017 13.3909C28.4515 12.9338 27.9065 12.5786 27.3087 12.3536C26.7357 12.1321 26.0816 11.9774 25.1252 11.9352C24.1616 11.8895 23.8558 11.8789 21.4119 11.8789C18.9681 11.8789 18.6622 11.8895 17.7022 11.9317C16.7458 11.9738 16.0883 12.1286 15.5187 12.35C14.9137 12.5786 14.3723 12.9302 13.9222 13.3909C13.465 13.841 13.11 14.3861 12.8849 14.9838C12.6633 15.557 12.5086 16.211 12.4665 17.1674C12.4207 18.1309 12.4102 18.4368 12.4102 20.8807C12.4102 23.3245 12.4207 23.6304 12.4629 24.5904C12.5051 25.5468 12.6599 26.2043 12.8814 26.7741C13.11 27.3788 13.465 27.9203 13.9222 28.3704C14.3723 28.8275 14.9173 29.1827 15.5151 29.4077C16.0883 29.6293 16.7422 29.7839 17.6988 29.8261C18.6586 29.8684 18.9646 29.8789 21.4085 29.8789C23.8523 29.8789 24.1582 29.8684 25.1182 29.8261C26.0746 29.7839 26.7321 29.6293 27.3017 29.4077C28.5114 28.94 29.4678 27.9836 29.9355 26.7741C30.157 26.2009 30.3118 25.5468 30.3539 24.5904C30.3961 23.6304 30.4067 23.3245 30.4067 20.8807C30.4067 18.4368 30.4031 18.1309 30.3609 17.171ZM28.74 24.52C28.7013 25.3991 28.5536 25.8738 28.4305 26.1903C28.1281 26.9745 27.5057 27.5968 26.7215 27.8993C26.4051 28.0223 25.9269 28.17 25.0513 28.2086C24.1019 28.2509 23.8172 28.2613 21.4155 28.2613C19.0138 28.2613 18.7255 28.2509 17.7795 28.2086C16.9005 28.17 16.4258 28.0223 16.1093 27.8993C15.7191 27.7551 15.3639 27.5265 15.0755 27.2276C14.7767 26.9357 14.5481 26.5841 14.4039 26.1939C14.2808 25.8774 14.1331 25.3991 14.0946 24.5236C14.0522 23.5742 14.0418 23.2893 14.0418 20.8877C14.0418 18.486 14.0522 18.1977 14.0946 17.2519C14.1331 16.3728 14.2808 15.8981 14.4039 15.5816C14.5481 15.1912 14.7767 14.8362 15.0791 14.5477C15.3709 14.2488 15.7225 14.0203 16.1129 13.8762C16.4293 13.7531 16.9076 13.6055 17.7831 13.5667C18.7325 13.5246 19.0174 13.514 21.4189 13.514C23.8242 13.514 24.1089 13.5246 25.0549 13.5667C25.9339 13.6055 26.4086 13.7531 26.7251 13.8762C27.1153 14.0203 27.4705 14.2488 27.7589 14.5477C28.0577 14.8396 28.2863 15.1912 28.4305 15.5816C28.5536 15.8981 28.7013 16.3762 28.74 17.2519C28.7822 18.2013 28.7927 18.486 28.7927 20.8877C28.7927 23.2893 28.7822 23.5706 28.74 24.52Z" fill="#F8F5F0"/>
<path d="M21.413 16.2559C18.8603 16.2559 16.7891 18.3269 16.7891 20.8798C16.7891 23.4327 18.8603 25.5038 21.413 25.5038C23.9659 25.5038 26.037 23.4327 26.037 20.8798C26.037 18.3269 23.9659 16.2559 21.413 16.2559ZM21.413 23.8793C19.7569 23.8793 18.4136 22.536 18.4136 20.8798C18.4136 19.2236 19.7569 17.8804 21.413 17.8804C23.0693 17.8804 24.4125 19.2236 24.4125 20.8798C24.4125 22.536 23.0693 23.8793 21.413 23.8793Z" fill="#F8F5F0"/>
<path d="M27.2997 16.0717C27.2997 16.6678 26.8164 17.1511 26.2201 17.1511C25.624 17.1511 25.1406 16.6678 25.1406 16.0717C25.1406 15.4754 25.624 14.9922 26.2201 14.9922C26.8164 14.9922 27.2997 15.4754 27.2997 16.0717Z" fill="#F8F5F0"/>
</g>
<defs>
<clipPath id="clip0_1412_1462">
<rect width="18" height="18" fill="white" transform="translate(12.3789 11.8789)"/>
</clipPath>
</defs>
</svg>
