<svg width="42" height="42" viewBox="0 0 42 42" fill="none" xmlns="http://www.w3.org/2000/svg">
<circle cx="21" cy="21" r="20.5" stroke="#F8F5F0"/>
<g clip-path="url(#clip0_1412_1468)">
<path d="M28.9968 28.9975L29.0008 28.9969V23.1289C29.0008 20.2582 28.3828 18.0469 25.0268 18.0469C23.4135 18.0469 22.3308 18.9322 21.8888 19.7715H21.8422V18.3149H18.6602V28.9969H21.9735V23.7075C21.9735 22.3149 22.2375 20.9682 23.9622 20.9682C25.6615 20.9682 25.6868 22.5575 25.6868 23.7969V28.9975H28.9968Z" fill="#F8F5F0"/>
<path d="M13.2656 18.3164H16.583V28.9984H13.2656V18.3164Z" fill="#F8F5F0"/>
<path d="M14.9213 13C13.8607 13 13 13.8607 13 14.9213C13 15.982 13.8607 16.8607 14.9213 16.8607C15.982 16.8607 16.8427 15.982 16.8427 14.9213C16.842 13.8607 15.9813 13 14.9213 13Z" fill="#F8F5F0"/>
</g>
<defs>
<clipPath id="clip0_1412_1468">
<rect width="16" height="16" fill="white" transform="translate(13 13)"/>
</clipPath>
</defs>
</svg>
