<svg width="148" height="104" viewBox="0 0 148 104" fill="none" xmlns="http://www.w3.org/2000/svg">
<path d="M9.91356 62.9022H8.3534C8.30239 62.9022 8.26838 62.9022 8.24288 62.9022V84.1824C8.26838 84.8152 8.50218 85.3582 8.94855 85.8071C9.39491 86.2561 9.93481 86.4827 10.564 86.4827H11.0358V86.8461H0.00425525V86.4827H0.476121C1.34759 86.4827 2.01077 86.1064 2.46988 85.3496C2.66544 85.0076 2.77172 84.6313 2.79723 84.2166V63.9626C2.77172 63.3298 2.5379 62.791 2.08729 62.3378C1.64092 61.8889 1.10104 61.6623 0.471878 61.6623H0V61.2988H12.4472C14.7938 61.2988 16.7791 61.8076 18.3987 62.8338C19.2192 63.3469 19.8739 64.0567 20.3585 64.9674C20.8431 65.8781 21.0854 67.071 21.0854 68.5461C21.0854 70.017 20.5753 71.4365 19.5593 72.8005C18.5433 74.1644 17.0681 74.9426 15.1296 75.135C16.5325 75.5968 17.7653 76.67 18.8323 78.346C21.4468 82.5576 23.381 85.0631 24.6393 85.867C25.2685 86.2561 26.055 86.4613 26.9987 86.487V86.8504H23.4405C21.3363 86.8504 19.589 86.5725 18.1947 86.0124C16.8046 85.4522 15.7078 84.4688 14.9086 83.0578C14.4495 82.254 13.4462 80.176 11.8946 76.8153C11.2186 75.3317 10.3939 74.515 9.42892 74.3696V74.0062H10.5555C11.6438 74.0062 12.6045 73.677 13.442 73.0228C14.2752 72.3643 14.8406 71.2954 15.1296 69.8117C15.2274 69.2987 15.2742 68.901 15.2742 68.606C15.2742 66.6092 14.8746 65.1683 14.0754 64.279C13.2762 63.3896 12.2474 62.9364 10.9891 62.9108C10.7595 62.9022 10.3939 62.9022 9.91356 62.9022Z" fill="#F8F5F0"/>
<path d="M12.455 61.2988H0.0078125V61.6623H0.479678C1.10884 61.6623 1.64449 61.8889 2.0951 62.3378C2.54147 62.7868 2.77952 63.3298 2.80503 63.9626V84.2208C2.77952 84.6356 2.67325 85.0118 2.4777 85.3539C2.01858 86.1064 1.35116 86.487 0.483933 86.487H0.0120548V86.8504H11.0436V86.487H10.5718C9.94262 86.487 9.40273 86.2603 8.95636 85.8114C8.51 85.3624 8.27193 84.8194 8.25068 84.1866V62.9065C8.27618 62.9065 8.3102 62.9065 8.36121 62.9065H9.92137C10.406 62.9065 10.7673 62.9065 11.0096 62.9065C12.268 62.9321 13.2967 63.3854 14.0959 64.2747C14.8951 65.1641 15.2947 66.605 15.2947 68.6017C15.2947 68.8925 15.2437 69.2944 15.1502 69.8075C14.8611 71.2911 14.2957 72.3643 13.4625 73.0185C12.6293 73.677 11.6643 74.0019 10.576 74.0019H9.44949V74.3654C10.4187 74.5107 11.2392 75.3274 11.9151 76.8111C13.4625 80.1675 14.4658 82.2497 14.9292 83.0536C15.7284 84.4646 16.8209 85.4522 18.2152 86.0081C19.6054 86.5682 21.3525 86.8461 23.4611 86.8461H27.0193V86.4827C26.0755 86.457 25.2891 86.2518 24.6599 85.8627C23.4016 85.0589 21.4673 82.5533 18.8529 78.3418C17.7859 76.6614 16.5531 75.5925 15.1502 75.1307C17.0845 74.934 18.5596 74.1558 19.5798 72.7962C20.5959 71.4322 21.106 70.017 21.106 68.5419C21.106 67.071 20.8637 65.8781 20.379 64.9631C19.8944 64.0524 19.244 63.3383 18.4193 62.8295C16.7869 61.8076 14.8016 61.2988 12.455 61.2988Z" fill="#F8F5F0"/>
<path d="M35.8408 64.362C38.417 61.9761 41.8901 60.7832 46.256 60.7832C50.6218 60.7832 54.095 61.9761 56.6712 64.362C59.2473 66.7478 60.5354 69.9845 60.5354 74.0721C60.5354 78.1596 59.2473 81.3963 56.6712 83.7822C54.095 86.168 50.6218 87.3609 46.256 87.3609C41.8901 87.3609 38.417 86.168 35.8408 83.7822C33.2646 81.3963 31.9766 78.1596 31.9766 74.0721C31.9766 69.9845 33.2646 66.7478 35.8408 64.362ZM40.1599 82.6662C41.6478 84.7699 43.6756 85.8217 46.239 85.8217C48.8024 85.8217 50.8344 84.7699 52.335 82.6662C53.8357 80.5626 54.5839 77.6979 54.5839 74.0678C54.5839 70.442 53.8357 67.5773 52.335 65.4694C50.8344 63.3657 48.8024 62.3139 46.239 62.3139C43.6756 62.3139 41.6478 63.3657 40.1599 65.4694C38.672 67.573 37.9281 70.442 37.9281 74.0678C37.9281 77.6979 38.672 80.5626 40.1599 82.6662Z" fill="#F8F5F0"/>
<path d="M46.256 60.7832C41.8901 60.7832 38.417 61.9761 35.8408 64.362C33.2646 66.7478 31.9766 69.9845 31.9766 74.0721C31.9766 78.1596 33.2646 81.3963 35.8408 83.7822C38.417 86.168 41.8901 87.3609 46.256 87.3609C50.6218 87.3609 54.095 86.168 56.6712 83.7822C59.2473 81.3963 60.5354 78.1596 60.5354 74.0721C60.5354 69.9845 59.2473 66.7478 56.6712 64.362C54.095 61.9761 50.6261 60.7832 46.256 60.7832ZM46.239 85.826C43.6756 85.826 41.6478 84.7741 40.1599 82.6705C38.672 80.5668 37.9281 77.7021 37.9281 74.0721C37.9281 70.4463 38.672 67.5816 40.1599 65.4736C41.6478 63.37 43.6756 62.3182 46.239 62.3182C48.8024 62.3182 50.8344 63.37 52.335 65.4736C53.8357 67.5773 54.5839 70.4463 54.5839 74.0721C54.5839 77.6979 53.8357 80.5626 52.335 82.6705C50.8344 84.7699 48.8024 85.826 46.239 85.826Z" fill="#F8F5F0"/>
<path d="M93.1275 61.6626H92.6216C91.8947 61.6626 91.206 61.8679 90.5514 62.2826C89.8967 62.6973 89.3781 63.1933 88.9912 63.7791L81.8409 75.2422V84.187C81.8409 84.8198 82.0704 85.3628 82.5296 85.8118C82.9887 86.2607 83.5328 86.4873 84.162 86.4873H84.5956L84.6338 86.8508H73.6023V86.4873H74.0741C74.7033 86.4873 75.2389 86.2693 75.6895 85.8289C76.1359 85.3927 76.374 84.854 76.3952 84.2212V75.2038L69.4617 63.7406C69.1003 63.1548 68.586 62.6631 67.9185 62.2612C67.2511 61.8593 66.5709 61.6584 65.8695 61.6584H65.3594V61.2949H77.373V61.6584H76.9011C76.3697 61.6584 75.9574 61.9021 75.6683 62.3895C75.5237 62.6589 75.4515 62.9197 75.4515 63.1762C75.4515 63.4328 75.511 63.6808 75.6343 63.9245L80.8249 73.4165L86.2322 63.9245C86.3513 63.6808 86.4151 63.4328 86.4151 63.1762C86.4151 62.9197 86.33 62.6717 86.16 62.428C85.8709 61.9149 85.4586 61.6626 84.9272 61.6626H84.4936V61.2992H93.1318V61.6626H93.1275Z" fill="#F8F5F0"/>
<path d="M93.124 61.2992H84.4857V61.6626H84.9194C85.4508 61.6626 85.8631 61.9192 86.1522 62.428C86.3222 62.6717 86.4072 62.9197 86.4072 63.1762C86.4072 63.4328 86.3477 63.6808 86.2245 63.9245L80.817 73.4165L75.6265 63.9245C75.5032 63.6808 75.4437 63.4328 75.4437 63.1762C75.4437 62.9197 75.5159 62.6589 75.6605 62.3895C75.9495 61.9021 76.3619 61.6584 76.8933 61.6584H77.3652V61.2949H65.3516V61.6584H65.8617C66.5631 61.6584 67.2476 61.8593 67.9107 62.2612C68.5739 62.6631 69.0925 63.1548 69.4539 63.7406L76.3874 75.2038V84.2212C76.3619 84.854 76.1281 85.3885 75.6817 85.8289C75.2354 86.2693 74.6955 86.4873 74.0663 86.4873H73.5944V86.8508H84.626L84.5878 86.4873H84.1542C83.525 86.4873 82.9809 86.2607 82.5217 85.8118C82.0626 85.3628 81.8331 84.8198 81.8331 84.187V75.2422L88.9834 63.7791C89.3703 63.1933 89.8889 62.6973 90.5436 62.2826C91.1982 61.8679 91.8869 61.6626 92.6138 61.6626H93.1197V61.2992H93.124Z" fill="#F8F5F0"/>
<path d="M120.674 86.4802H121.001V86.8436H109.426V86.4802H109.753C110.284 86.4802 110.68 86.3177 110.931 85.9885C111.186 85.6592 111.313 85.3514 111.313 85.0564C111.313 84.7656 111.254 84.4706 111.13 84.1799L109.353 79.6904H100.86L98.9722 84.1799C98.8489 84.4963 98.7894 84.7956 98.7894 85.0735C98.7894 85.3557 98.9212 85.6592 99.189 85.9842C99.4526 86.3134 99.8522 86.4759 100.388 86.4759H100.677V86.8393H92.9102V86.4759H93.2375C93.7944 86.4759 94.3513 86.3049 94.9082 85.9628C95.4651 85.6208 95.9242 85.112 96.2855 84.4278L104.669 65.3369C105.804 62.9297 106.412 61.3348 106.484 60.5566H106.811L117.588 84.3552C117.949 85.0607 118.408 85.5908 118.965 85.9414C119.522 86.3049 120.092 86.4802 120.674 86.4802ZM101.476 78.1597H108.733L105.213 69.1807L101.476 78.1597Z" fill="#F8F5F0"/>
<path d="M106.811 60.5645H106.484C106.412 61.3426 105.808 62.9375 104.669 65.3447L96.2855 84.4357C95.9242 85.1155 95.4651 85.6286 94.9082 85.9706C94.3513 86.3127 93.7944 86.4837 93.2375 86.4837H92.9102V86.8472H100.677V86.4837H100.388C99.8565 86.4837 99.4568 86.3212 99.189 85.992C98.9212 85.6628 98.7894 85.3592 98.7894 85.0813C98.7894 84.8034 98.8489 84.5041 98.9722 84.1877L100.86 79.6982H109.353L111.13 84.1877C111.249 84.4784 111.313 84.7734 111.313 85.0642C111.313 85.3549 111.186 85.6671 110.931 85.9963C110.675 86.3255 110.284 86.488 109.753 86.488H109.426V86.8514H121.001V86.488H120.674C120.092 86.488 119.526 86.3127 118.969 85.9578C118.412 85.6072 117.953 85.077 117.592 84.3715L106.811 60.5645ZM101.476 78.1589L105.213 69.18L108.733 78.1589H101.476Z" fill="#F8F5F0"/>
<path d="M127.675 86.483C128.304 86.483 128.84 86.2564 129.29 85.8075C129.737 85.3585 129.975 84.8155 130 84.1827V63.9587C129.975 63.3259 129.741 62.7871 129.29 62.3339C128.844 61.885 128.304 61.6584 127.675 61.6584H127.203V61.2949H138.235L138.196 61.6584H137.763C137.134 61.6584 136.59 61.885 136.13 62.3339C135.671 62.7829 135.442 63.3259 135.442 63.9587V85.2773H140.194C141.959 85.2773 143.442 84.7685 144.641 83.7423C145.84 82.7204 146.728 81.271 147.311 79.3982H147.672L146.001 86.8465H127.203V86.483H127.675Z" fill="#F8F5F0"/>
<path d="M138.235 61.3008H127.203V61.6642H127.675C128.304 61.6642 128.84 61.8908 129.29 62.3398C129.737 62.7887 129.975 63.3317 130 63.9645V84.1886C129.975 84.8214 129.741 85.3644 129.29 85.8133C128.844 86.2623 128.304 86.4889 127.675 86.4889H127.203V86.8523H146.001L147.672 79.4041H147.311C146.728 81.2768 145.84 82.7263 144.641 83.7482C143.442 84.7701 141.963 85.2832 140.194 85.2832H135.442V63.9645C135.442 63.3317 135.671 62.793 136.13 62.3398C136.59 61.8908 137.134 61.6642 137.763 61.6642H138.196L138.235 61.3008Z" fill="#F8F5F0"/>
<path fill-rule="evenodd" clip-rule="evenodd" d="M54.8477 26.5069C56.6332 30.385 57.7937 34.2588 58.3039 36.093C59.0818 38.9064 59.2944 43.5456 61.0331 45.0934C62.8185 46.6925 65.9813 48.6892 67.3545 50.1002C68.6468 43.862 68.9571 27.1868 74.0032 20.0506C78.5348 26.2718 80.5031 41.1341 80.0567 50.1002C93.622 41.4291 84.5416 43.0111 93.5072 24.9078C95.2629 21.3462 98.5532 15.7878 103.068 15.7749C109.95 15.7407 108.611 24.7111 100.866 23.4626C104.19 27.7212 111.022 25.0617 111.685 19.7171C113.173 7.53566 91.2881 5.32512 84.3036 33.4293C84.1548 33.0445 84.04 32.5955 83.921 32.0995C82.7944 27.5074 80.231 21.2008 78.0162 16.9593C77.5868 16.1426 77.2893 15.5953 76.8089 14.8129C79.8867 8.75423 85.8892 1.83616 94.0811 0.219943C81.6424 -1.59295 76.4603 8.33949 73.8629 10.302C71.4823 8.65589 66.1684 -1.62716 53.6149 0.237046C61.5389 1.86609 67.2949 7.4758 71.0189 14.5649C70.3727 15.7792 69.7436 16.9764 69.1314 18.1907C68.3194 19.8539 67.5585 21.5685 66.9166 23.4498C65.8921 26.0109 64.8506 29.0894 64.0556 31.7703C63.8728 32.3518 63.69 32.9333 63.4094 33.3993C62.878 31.0862 62.0533 29.0253 61.2754 27.1098L61.2414 27.0585L61.0246 26.524C52.4884 6.00923 34.604 8.83547 35.9771 19.901C36.6233 25.2413 43.4548 27.9051 46.7791 23.6465C39.0379 24.895 37.7116 15.9246 44.5941 15.9417C49.096 15.9588 52.3863 21.5343 54.1378 25.0917C54.4014 25.5748 54.6352 26.0409 54.8477 26.5069Z" fill="#F8F5F0"/>
<path d="M38.8694 103.663L38.8822 103.804H34.6523V103.663H34.8351C35.0775 103.663 35.2815 103.577 35.4558 103.402C35.6259 103.231 35.7194 103.021 35.7279 102.778V95.013C35.7194 94.7693 35.6301 94.564 35.4558 94.3973C35.2858 94.2305 35.0775 94.145 34.8351 94.145H34.6523V94.0039H38.8822L38.8694 94.145H38.7036C38.4613 94.145 38.253 94.2305 38.0787 94.3973C37.9044 94.564 37.8152 94.7693 37.8152 95.013V102.778C37.8152 103.021 37.9044 103.227 38.0787 103.402C38.253 103.573 38.4613 103.663 38.7036 103.663H38.8694Z" fill="#F8F5F0"/>
<path d="M47.7962 97.0485L50.4532 98.7844C51.3331 99.3616 51.7497 100.136 51.703 101.106C51.6562 102.021 51.3076 102.731 50.6615 103.24C50.011 103.748 49.1311 104.001 48.0173 104.001C47.3881 104.001 46.8057 103.924 46.2701 103.77C45.7387 103.616 45.3434 103.411 45.0968 103.146C44.9863 102.846 44.965 102.457 45.0415 101.97C45.1138 101.487 45.2456 101.089 45.4326 100.781H45.5559C45.5006 101.517 45.7175 102.145 46.2106 102.654C46.7037 103.167 47.3541 103.419 48.1703 103.411C48.7655 103.402 49.2331 103.248 49.5732 102.957C49.9175 102.662 50.0876 102.29 50.0876 101.833C50.0876 101.564 50.0026 101.32 49.8325 101.106C49.6625 100.892 49.3776 100.653 48.978 100.392L46.5592 98.7844C45.5772 98.1217 45.135 97.2836 45.2371 96.266C45.2923 95.5306 45.5772 94.9363 46.0915 94.4916C46.6059 94.0469 47.2946 93.8203 48.1576 93.8203C48.6677 93.8203 49.2969 93.8673 50.0493 93.9614H50.925L50.7422 96.018H50.602C50.602 95.5349 50.4234 95.1458 50.0663 94.8508C49.7092 94.5557 49.2331 94.4104 48.6422 94.4104C48.1151 94.4104 47.6815 94.5386 47.3499 94.7952C47.014 95.0517 46.8397 95.3724 46.8227 95.7529C46.8142 96.0137 46.8907 96.2446 47.0523 96.437C47.2138 96.6294 47.4646 96.8347 47.7962 97.0485Z" fill="#F8F5F0"/>
<path d="M65.5581 100.952L64.9205 103.804H57.7148V103.663H57.8976C58.14 103.663 58.344 103.577 58.5183 103.402C58.6884 103.231 58.7819 103.021 58.7904 102.778V95.0301C58.7819 94.7864 58.6926 94.5811 58.5183 94.4058C58.3483 94.2348 58.14 94.145 57.8976 94.145H57.7148V94.0039H61.9447L61.9319 94.145H61.7661C61.5238 94.145 61.3155 94.2305 61.1412 94.4058C60.9669 94.5769 60.8777 94.7864 60.8777 95.0301V103.201H62.7014C63.3773 103.201 63.9469 103.004 64.4061 102.615C64.8652 102.226 65.2053 101.67 65.4263 100.952H65.5581Z" fill="#F8F5F0"/>
<path d="M75.5184 93.7347L79.6504 102.855C79.7907 103.124 79.965 103.329 80.1776 103.462C80.3901 103.599 80.6069 103.663 80.8323 103.663H80.9555V103.804H76.5174V103.663H76.6407C76.8447 103.663 77.0105 103.582 77.1338 103.419C77.2571 103.257 77.2698 103.043 77.1678 102.782L76.4876 101.063H73.2313L72.5086 102.782C72.4066 103.043 72.4193 103.257 72.5511 103.419C72.6829 103.582 72.8487 103.663 73.0528 103.663H73.1633V103.804H70.1875V103.663H70.3108C70.5234 103.663 70.7359 103.599 70.9485 103.466C71.161 103.334 71.3396 103.141 71.4756 102.88L74.6894 95.5647C75.123 94.6412 75.3568 94.0298 75.3866 93.7305H75.5184V93.7347ZM73.4736 100.473H76.2538L74.9062 97.0313L73.4736 100.473Z" fill="#F8F5F0"/>
<path d="M92.8056 94.0122H97.0184V94.1533H96.7548C96.521 94.1533 96.3255 94.2346 96.1554 94.3971C95.9896 94.5595 95.9004 94.7605 95.8919 94.9914V102.209C95.8919 102.525 95.9046 102.833 95.9344 103.132C95.9641 103.432 95.9896 103.65 96.0194 103.791L96.0619 104H95.9386L88.9116 97.2703V102.824C88.9116 103.06 88.9966 103.256 89.1624 103.419C89.3282 103.581 89.528 103.662 89.7618 103.662H90.0253V103.804H85.8125V103.662H86.0633C86.3056 103.662 86.5097 103.581 86.6755 103.419C86.8413 103.256 86.9263 103.051 86.9263 102.812V95.5515C86.9263 95.2436 86.9135 94.9443 86.8838 94.6493C86.854 94.3543 86.8285 94.1448 86.7988 94.0122L86.769 93.8027H86.8923L93.9151 100.533V95.0042C93.9066 94.7605 93.8173 94.5595 93.6515 94.3971C93.4857 94.2346 93.2859 94.1533 93.0521 94.1533H92.8013V94.0122H92.8056Z" fill="#F8F5F0"/>
<path d="M102.656 94.0117H107.707C109.347 94.0117 110.644 94.4521 111.601 95.3286C112.557 96.2052 113.033 97.3981 113.033 98.9117C113.033 100.425 112.557 101.618 111.601 102.495C110.644 103.371 109.347 103.812 107.707 103.812H102.656V103.671H102.839C103.081 103.671 103.285 103.585 103.46 103.41C103.63 103.239 103.723 103.029 103.732 102.785V94.9524C103.732 94.73 103.642 94.5419 103.46 94.388C103.281 94.2341 103.073 94.1571 102.839 94.1571H102.656V94.0117ZM105.811 94.5975V103.2H107.519C108.523 103.2 109.309 102.815 109.892 102.046C110.47 101.276 110.759 100.229 110.759 98.9074C110.759 97.5819 110.47 96.5344 109.892 95.7605C109.313 94.9866 108.523 94.5975 107.519 94.5975H105.811Z" fill="#F8F5F0"/>
</svg>
