<svg width="171" height="36" viewBox="0 0 171 36" fill="none" xmlns="http://www.w3.org/2000/svg">
<path fill-rule="evenodd" clip-rule="evenodd" d="M14.6958 19.0468C15.9867 21.8334 16.8258 24.617 17.1946 25.935C17.7571 27.9566 17.9108 31.2901 19.1679 32.4023C20.4588 33.5513 22.7456 34.9861 23.7383 36C24.6727 31.5175 24.8971 19.5353 28.5454 14.4076C31.8219 18.8778 33.245 29.5573 32.9222 36C42.7301 29.7693 36.1649 30.9061 42.6471 17.8978C43.9165 15.3385 46.2955 11.3444 49.5596 11.3352C54.5358 11.3107 53.5676 17.7564 47.9675 16.8593C50.371 19.9194 55.3103 18.0084 55.7898 14.1679C56.8656 5.41482 41.0427 3.82642 35.9928 24.0209C35.8852 23.7444 35.8022 23.4218 35.7161 23.0654C34.9016 19.7657 33.0483 15.234 31.4469 12.1863C31.1365 11.5995 30.9213 11.2062 30.574 10.644C32.7993 6.29044 37.1392 1.31939 43.062 0.158042C34.0687 -1.14463 30.322 5.99242 28.444 7.40263C26.7228 6.21977 22.8808 -1.16922 13.8045 0.170325C19.5337 1.34089 23.6953 5.37181 26.3878 10.4658C25.9206 11.3383 25.4657 12.1986 25.0231 13.0711C24.436 14.2662 23.8859 15.4983 23.4218 16.8501C22.681 18.6904 21.928 20.9025 21.3532 22.8289C21.2211 23.2467 21.0889 23.6645 20.886 23.9994C20.5018 22.3373 19.9056 20.8564 19.3431 19.48L19.3185 19.4431L19.1617 19.0591C12.99 4.31799 0.0593417 6.34882 1.05211 14.3C1.5193 18.1374 6.45857 20.0515 8.86212 16.9914C3.2651 17.8885 2.30614 11.4428 7.28229 11.455C10.5372 11.4673 12.9162 15.4737 14.1825 18.0299C14.3731 18.377 14.5391 18.7119 14.6958 19.0468Z" fill="url(#paint0_linear_616_289)"/>
<path d="M71.3922 4.06927H70.2642C70.2273 4.06927 70.2028 4.06927 70.1843 4.06927V19.3603C70.2028 19.815 70.3718 20.2052 70.6945 20.5278C71.0173 20.8504 71.4076 21.0132 71.8625 21.0132H72.2037V21.2744H64.2277V21.0132H64.5689C65.1989 21.0132 65.6784 20.7429 66.0104 20.1991C66.1518 19.9533 66.2286 19.6829 66.247 19.3849V4.82814C66.2286 4.37343 66.0595 3.98632 65.7337 3.66065C65.411 3.33805 65.0207 3.17521 64.5658 3.17521H64.2246V2.91406H73.2241C74.9207 2.91406 76.3561 3.27967 77.5271 4.01703C78.1203 4.38571 78.5937 4.89573 78.9441 5.55014C79.2945 6.20455 79.4697 7.06173 79.4697 8.12169C79.4697 9.17858 79.1008 10.1986 78.3662 11.1787C77.6316 12.1588 76.5651 12.7179 75.1635 12.8562C76.1778 13.188 77.0692 13.9591 77.8406 15.1635C79.7309 18.1898 81.1294 19.9902 82.0392 20.5678C82.4941 20.8473 83.0627 20.9948 83.745 21.0132V21.2744H81.1724C79.651 21.2744 78.3877 21.0747 77.3796 20.6722C76.3745 20.2697 75.5816 19.5631 75.0037 18.5492C74.6718 17.9716 73.9464 16.4785 72.8245 14.0636C72.3358 12.9975 71.7396 12.4107 71.0418 12.3062V12.0451H71.8563C72.6432 12.0451 73.3378 11.8085 73.9433 11.3384C74.5457 10.8653 74.9545 10.0972 75.1635 9.0311C75.2342 8.66242 75.268 8.37669 75.268 8.1647C75.268 6.72991 74.9791 5.69453 74.4013 5.05549C73.8234 4.41644 73.0796 4.09078 72.1699 4.07234C72.0039 4.06927 71.7426 4.06927 71.3922 4.06927Z" fill="url(#paint1_linear_616_289)"/>
<path d="M69.385 3.71273V4.06912V19.3909C69.4004 19.7872 69.4957 20.1498 69.6709 20.4785H66.7663C66.9262 20.159 67.0214 19.8087 67.0429 19.437V19.4124V19.3878V4.80034C67.0276 4.40708 66.9323 4.04454 66.7571 3.7158H69.385M74.0385 3.74653C75.2279 3.84484 76.2607 4.16129 77.1121 4.69588C77.5885 4.99083 77.9604 5.3933 78.2431 5.92789C78.529 6.46247 78.6734 7.20292 78.6734 8.12462C78.6734 9.01253 78.3661 9.85742 77.7298 10.7023C77.1305 11.5011 76.2668 11.9497 75.0866 12.0664L74.1737 12.1586C74.2628 12.1002 74.352 12.0357 74.438 11.9681C75.1941 11.3752 75.7013 10.4412 75.9502 9.18151C76.0301 8.7606 76.0701 8.42878 76.0701 8.16763C76.0701 6.51471 75.7197 5.32264 74.9974 4.52383C74.7116 4.20124 74.3919 3.94316 74.0385 3.74653ZM73.1994 13.0527L74.9206 13.618C75.7504 13.8914 76.5096 14.555 77.1674 15.5904C78.8732 18.3248 79.9674 19.7166 80.702 20.4754C79.4972 20.4386 78.4829 20.2573 77.6807 19.9378C76.8385 19.6029 76.193 19.0191 75.7013 18.1558C75.3816 17.5997 74.6593 16.1127 73.5559 13.7347C73.4452 13.4828 73.3254 13.2585 73.1994 13.0527ZM73.227 2.91699H64.2275V3.17814H64.5687C65.0236 3.17814 65.4109 3.34097 65.7367 3.66357C66.0594 3.98617 66.2315 4.37636 66.25 4.83107V19.3878C66.2315 19.6858 66.1547 19.9562 66.0133 20.202C65.6813 20.7427 65.1988 21.0162 64.5718 21.0162H64.2306V21.2773H72.2066V21.0162H71.8654C71.4105 21.0162 71.0202 20.8533 70.6975 20.5307C70.3747 20.2081 70.2026 19.818 70.1872 19.3632V4.06912C70.2057 4.06912 70.2303 4.06912 70.2672 4.06912H71.3952C71.7455 4.06912 72.0068 4.06912 72.182 4.06912C73.0918 4.08756 73.8356 4.41323 74.4134 5.05228C74.9913 5.69132 75.2802 6.7267 75.2802 8.16149C75.2802 8.37041 75.2433 8.65921 75.1757 9.02789C74.9667 10.094 74.5579 10.8651 73.9555 11.3352C73.353 11.8084 72.6553 12.0419 71.8685 12.0419H71.054V12.303C71.7548 12.4075 72.348 12.9943 72.8367 14.0604C73.9555 16.4722 74.6808 17.9684 75.0159 18.546C75.5937 19.5599 76.3836 20.2696 77.3917 20.669C78.3968 21.0715 79.6601 21.2712 81.1846 21.2712H83.7572V21.01C83.0748 20.9916 82.5062 20.8441 82.0513 20.5645C81.1415 19.9869 79.7431 18.1865 77.8528 15.1603C77.0813 13.9529 76.19 13.1848 75.1757 12.853C76.5742 12.7116 77.6407 12.1525 78.3784 11.1755C79.113 10.1954 79.4818 9.17843 79.4818 8.11847C79.4818 7.06158 79.3066 6.2044 78.9562 5.54692C78.6058 4.89251 78.1356 4.37943 77.5393 4.01382C76.359 3.2826 74.9237 2.91699 73.227 2.91699Z" fill="url(#paint2_linear_616_289)"/>
<path d="M90.1376 5.12039C92.0002 3.40602 94.5114 2.54883 97.668 2.54883C100.825 2.54883 103.336 3.40602 105.198 5.12039C107.061 6.83476 107.992 9.16052 107.992 12.0977C107.992 15.0348 107.061 17.3606 105.198 19.075C103.336 20.7893 100.825 21.6465 97.668 21.6465C94.5114 21.6465 92.0002 20.7893 90.1376 19.075C88.275 17.3606 87.3438 15.0348 87.3438 12.0977C87.3438 9.16052 88.275 6.83476 90.1376 5.12039ZM93.2604 18.2731C94.3362 19.7847 95.8023 20.5405 97.6557 20.5405C99.509 20.5405 100.978 19.7847 102.063 18.2731C103.148 16.7615 103.689 14.703 103.689 12.0946C103.689 9.48926 103.148 7.43079 102.063 5.91612C100.978 4.40453 99.509 3.64873 97.6557 3.64873C95.8023 3.64873 94.3362 4.40453 93.2604 5.91612C92.1847 7.42772 91.6468 9.48926 91.6468 12.0946C91.6468 14.703 92.1847 16.7615 93.2604 18.2731Z" fill="url(#paint3_linear_616_289)"/>
<path d="M100.898 3.72554C102.377 4.10344 103.634 4.76706 104.657 5.7072C106.363 7.27717 107.193 9.36944 107.193 12.0977C107.193 14.8259 106.363 16.9182 104.657 18.4882C103.634 19.4283 102.377 20.0919 100.895 20.4698C101.581 20.0458 102.186 19.4682 102.709 18.7401C103.886 17.0964 104.485 14.8628 104.485 12.0977C104.485 9.33564 103.889 7.09898 102.709 5.45527C102.189 4.72713 101.584 4.14952 100.898 3.72554ZM94.4007 3.73476C93.7245 4.15874 93.1252 4.73327 92.6088 5.45834C91.4409 7.10204 90.8476 9.33564 90.8476 12.0977C90.8476 14.8597 91.4409 17.0933 92.6088 18.737C93.1252 19.4621 93.7215 20.0366 94.4007 20.4606C92.9377 20.0796 91.6929 19.4221 90.6786 18.4882C88.9728 16.9182 88.1429 14.829 88.1429 12.0977C88.1429 9.36944 88.9728 7.27717 90.6786 5.7072C91.6929 4.7732 92.9408 4.11573 94.4007 3.73476ZM97.668 2.54883C94.5114 2.54883 92.0002 3.40602 90.1376 5.12039C88.275 6.83476 87.3438 9.16052 87.3438 12.0977C87.3438 15.0348 88.275 17.3606 90.1376 19.075C92.0002 20.7893 94.5114 21.6465 97.668 21.6465C100.825 21.6465 103.336 20.7893 105.198 19.075C107.061 17.3606 107.992 15.0348 107.992 12.0977C107.992 9.16052 107.061 6.83476 105.198 5.12039C103.339 3.40602 100.828 2.54883 97.668 2.54883ZM97.6557 20.5436C95.8023 20.5436 94.3362 19.7878 93.2604 18.2762C92.1847 16.7646 91.6468 14.7061 91.6468 12.0977C91.6468 9.49233 92.1847 7.43386 93.2604 5.91919C94.3362 4.4076 95.8023 3.65181 97.6557 3.65181C99.509 3.65181 100.978 4.4076 102.063 5.91919C103.148 7.43078 103.689 9.49233 103.689 12.0977C103.689 14.703 103.148 16.7615 102.063 18.2762C100.981 19.7878 99.509 20.5436 97.6557 20.5436Z" fill="url(#paint4_linear_616_289)"/>
<path d="M131.558 3.18024H131.192C130.667 3.18024 130.169 3.32771 129.696 3.62573C129.222 3.92374 128.847 4.28014 128.568 4.70105L123.398 12.938V19.3654C123.398 19.8201 123.564 20.2102 123.896 20.5328C124.228 20.8554 124.621 21.0183 125.076 21.0183H125.389L125.417 21.2794H117.441V21.0183H117.782C118.237 21.0183 118.625 20.8616 118.95 20.5451C119.273 20.2318 119.445 19.8446 119.461 19.3899V12.9104L114.447 4.6734C114.186 4.25249 113.814 3.89917 113.332 3.61037C112.849 3.32157 112.357 3.17717 111.85 3.17717H111.481V2.91602H120.167V3.17717H119.826C119.442 3.17717 119.144 3.35229 118.935 3.70254C118.83 3.89609 118.778 4.08351 118.778 4.26785C118.778 4.4522 118.821 4.63039 118.91 4.80551L122.663 11.6261L126.573 4.80551C126.659 4.63039 126.705 4.4522 126.705 4.26785C126.705 4.08351 126.644 3.90532 126.521 3.73019C126.312 3.36151 126.013 3.18024 125.629 3.18024H125.316V2.91909H131.561V3.18024H131.558Z" fill="url(#paint5_linear_616_289)"/>
<path d="M128.335 3.71483C128.172 3.88995 128.022 4.07737 127.89 4.27707L126.792 6.02523L127.266 5.20184L127.278 5.18341L127.287 5.1619C127.429 4.87617 127.502 4.57509 127.502 4.26785C127.502 4.07737 127.468 3.89302 127.407 3.71483H128.335ZM118.066 3.71483C118.008 3.89917 117.98 4.08351 117.98 4.26785C117.98 4.57509 118.054 4.87925 118.211 5.18956L121.964 12.0102L122.6 13.1654V19.3623C122.6 19.7617 122.692 20.1396 122.87 20.4806H119.984C120.153 20.158 120.246 19.7955 120.261 19.3899V12.9104V12.6861L120.144 12.4956L115.128 4.25249C115.008 4.062 114.873 3.88381 114.719 3.71483H118.066ZM131.556 2.91909H125.311V3.18024H125.624C126.009 3.18024 126.307 3.36459 126.516 3.73019C126.639 3.90532 126.7 4.08351 126.7 4.26785C126.7 4.4522 126.657 4.63039 126.568 4.80551L122.658 11.6261L118.905 4.80551C118.816 4.63039 118.773 4.4522 118.773 4.26785C118.773 4.08351 118.826 3.89609 118.93 3.70254C119.139 3.35229 119.437 3.17717 119.821 3.17717H120.163V2.91602H111.477V3.17717H111.845C112.353 3.17717 112.847 3.32157 113.327 3.61037C113.809 3.89917 114.178 4.25249 114.443 4.6734L119.456 12.9104V19.3899C119.437 19.8446 119.268 20.2287 118.945 20.5451C118.623 20.8616 118.232 21.0183 117.777 21.0183H117.436V21.2794H125.412L125.385 21.0183H125.071C124.616 21.0183 124.223 20.8554 123.891 20.5328C123.559 20.2102 123.393 19.8201 123.393 19.3654V12.938L128.563 4.70105C128.842 4.28014 129.217 3.92374 129.691 3.62573C130.164 3.32771 130.662 3.18024 131.188 3.18024H131.553V2.91909H131.556Z" fill="url(#paint6_linear_616_289)"/>
<path d="M151.475 21.0124H151.712V21.2735H143.342V21.0124H143.579C143.963 21.0124 144.249 20.8956 144.43 20.6591C144.615 20.4225 144.707 20.2013 144.707 19.9893C144.707 19.7804 144.664 19.5684 144.575 19.3595L143.29 16.1335H137.149L135.784 19.3595C135.695 19.5868 135.652 19.8019 135.652 20.0016C135.652 20.2044 135.747 20.4225 135.941 20.656C136.132 20.8926 136.421 21.0093 136.808 21.0093H137.017V21.2705H131.401V21.0093H131.638C132.041 21.0093 132.443 20.8864 132.846 20.6406C133.249 20.3948 133.581 20.0292 133.842 19.5377L139.903 5.81965C140.724 4.08992 141.163 2.94393 141.215 2.38477H141.452L149.244 19.4854C149.505 19.9924 149.837 20.3733 150.239 20.6253C150.645 20.8864 151.054 21.0124 151.475 21.0124ZM137.595 15.0336H142.841L140.296 8.58169L137.595 15.0336Z" fill="url(#paint7_linear_616_289)"/>
<path d="M141.449 4.31488L148.515 19.8241L148.524 19.8425L148.534 19.8609C148.65 20.0852 148.779 20.2911 148.921 20.4816H145.426C145.478 20.3187 145.503 20.1559 145.503 19.9931C145.503 19.6797 145.438 19.3632 145.316 19.0683L144.031 15.8423L143.831 15.3385H143.822L143.585 14.7424L141.04 8.2905L140.404 6.67445L140.625 6.17058C140.985 5.40864 141.252 4.80031 141.449 4.31488ZM137.121 14.0972L136.857 14.724L136.393 15.83H136.408L135.037 19.0744C134.914 19.3909 134.853 19.7043 134.853 20.0053C134.853 20.162 134.878 20.3218 134.93 20.4785H134.186C134.315 20.3095 134.435 20.1221 134.543 19.9224L134.558 19.8947L134.57 19.8671L137.121 14.0972ZM141.452 2.3916H141.215C141.163 2.95077 140.727 4.09675 139.903 5.82648L133.842 19.5445C133.581 20.033 133.249 20.4017 132.846 20.6475C132.443 20.8933 132.041 21.0162 131.638 21.0162H131.401V21.2773H137.017V21.0162H136.808C136.424 21.0162 136.135 20.8994 135.941 20.6628C135.747 20.4263 135.652 20.2081 135.652 20.0084C135.652 19.8087 135.695 19.5937 135.784 19.3663L137.149 16.1403H143.29L144.575 19.3663C144.661 19.5752 144.707 19.7872 144.707 19.9961C144.707 20.205 144.615 20.4293 144.43 20.6659C144.246 20.9025 143.963 21.0192 143.579 21.0192H143.342V21.2804H151.712V21.0192H151.475C151.054 21.0192 150.645 20.8933 150.243 20.6383C149.84 20.3863 149.508 20.0054 149.247 19.4984L141.452 2.3916ZM137.595 15.0343L140.296 8.58237L142.841 15.0343H137.595Z" fill="url(#paint8_linear_616_289)"/>
<path d="M156.536 21.0152C156.991 21.0152 157.379 20.8524 157.704 20.5298C158.027 20.2072 158.199 19.817 158.218 19.3623V4.83009C158.199 4.37538 158.03 3.98827 157.704 3.6626C157.382 3.34001 156.991 3.17717 156.536 3.17717H156.195V2.91602H164.171L164.144 3.17717H163.83C163.375 3.17717 162.982 3.34001 162.65 3.6626C162.318 3.9852 162.152 4.37538 162.152 4.83009V20.1488H165.588C166.864 20.1488 167.936 19.7832 168.803 19.0458C169.67 18.3115 170.312 17.27 170.733 15.9243H170.995L169.787 21.2763H156.195V21.0152H156.536Z" fill="url(#paint9_linear_616_289)"/>
<path d="M161.627 3.71468C161.449 4.05264 161.357 4.43054 161.357 4.82994V20.1486V20.4774H158.729C158.904 20.1456 158.999 19.7738 159.018 19.3591V4.79614C159.002 4.40288 158.907 4.04035 158.732 3.71161H161.627M169.342 19.6417L169.151 20.4805H167.996C168.475 20.2746 168.918 19.9981 169.32 19.6571C169.327 19.6509 169.333 19.6448 169.342 19.6417ZM164.175 2.91895H156.199V3.1801H156.54C156.995 3.1801 157.383 3.34293 157.708 3.66552C158.031 3.98812 158.203 4.37831 158.222 4.83302V19.3652C158.203 19.8199 158.034 20.2101 157.708 20.5327C157.386 20.8553 156.995 21.0181 156.54 21.0181H156.199V21.2793H169.791L170.999 15.9272H170.737C170.316 17.2729 169.674 18.3145 168.807 19.0488C167.94 19.783 166.871 20.1517 165.592 20.1517H162.156V4.83302C162.156 4.37831 162.322 3.99119 162.654 3.66552C162.986 3.34293 163.379 3.1801 163.834 3.1801H164.148L164.175 2.91895Z" fill="url(#paint10_linear_616_289)"/>
<path d="M92.3273 33.3613L92.3365 33.4627H89.2783V33.3613H89.4105C89.5857 33.3613 89.7332 33.2999 89.8592 33.1739C89.9822 33.051 90.0498 32.9005 90.0559 32.7254V27.146C90.0498 26.9709 89.9852 26.8234 89.8592 26.7036C89.7363 26.5837 89.5857 26.5223 89.4105 26.5223H89.2783V26.4209H92.3365L92.3273 26.5223H92.2075C92.0323 26.5223 91.8817 26.5837 91.7556 26.7036C91.6296 26.8234 91.5651 26.9709 91.5651 27.146V32.7254C91.5651 32.9005 91.6296 33.0479 91.7556 33.1739C91.8817 33.2968 92.0323 33.3613 92.2075 33.3613H92.3273Z" fill="url(#paint11_linear_616_289)"/>
<path d="M98.7853 28.6067L100.706 29.8541C101.343 30.2689 101.644 30.825 101.61 31.5224C101.576 32.1799 101.324 32.6899 100.857 33.0555C100.387 33.4211 99.7504 33.6024 98.9451 33.6024C98.4902 33.6024 98.0691 33.5471 97.6819 33.4365C97.2977 33.3258 97.0118 33.1784 96.8336 32.9879C96.7536 32.7728 96.7383 32.4932 96.7936 32.143C96.8458 31.7958 96.9411 31.5101 97.0764 31.2889H97.1655C97.1255 31.8173 97.2823 32.269 97.6388 32.6346C97.9954 33.0033 98.4656 33.1845 99.0558 33.1784C99.4861 33.1722 99.8242 33.0616 100.07 32.8527C100.319 32.6407 100.442 32.3734 100.442 32.0447C100.442 31.8511 100.38 31.676 100.258 31.5224C100.135 31.3688 99.9287 31.1967 99.6397 31.0093L97.8909 29.8541C97.1809 29.3779 96.8612 28.7757 96.935 28.0445C96.9749 27.516 97.1809 27.089 97.5528 26.7695C97.9247 26.4499 98.4226 26.2871 99.0465 26.2871C99.4154 26.2871 99.8703 26.3209 100.414 26.3885H101.047L100.915 27.8663H100.814C100.814 27.5191 100.685 27.2395 100.427 27.0275C100.168 26.8156 99.8242 26.7111 99.3969 26.7111C99.0158 26.7111 98.7023 26.8033 98.4626 26.9876C98.2197 27.1719 98.0937 27.4024 98.0814 27.6758C98.0753 27.8632 98.1306 28.0291 98.2474 28.1674C98.3642 28.3056 98.5425 28.4531 98.7853 28.6067Z" fill="url(#paint12_linear_616_289)"/>
<path d="M111.623 31.4135L111.162 33.4627H105.952V33.3613H106.084C106.26 33.3613 106.407 33.2999 106.533 33.1739C106.656 33.051 106.724 32.9005 106.73 32.7254V27.1583C106.724 26.9831 106.659 26.8357 106.533 26.7097C106.41 26.5868 106.26 26.5223 106.084 26.5223H105.952V26.4209H109.01L109.001 26.5223H108.881C108.706 26.5223 108.555 26.5837 108.429 26.7097C108.303 26.8326 108.239 26.9831 108.239 27.1583V33.0295H109.557C110.046 33.0295 110.458 32.8882 110.79 32.6086C111.122 32.329 111.368 31.9296 111.528 31.4135H111.623Z" fill="url(#paint13_linear_616_289)"/>
<path d="M118.826 26.2267L121.814 32.78C121.915 32.9736 122.041 33.121 122.195 33.2163C122.348 33.3146 122.505 33.3607 122.668 33.3607H122.757V33.4621H119.548V33.3607H119.637C119.785 33.3607 119.905 33.3023 119.994 33.1856C120.083 33.0688 120.092 32.9152 120.019 32.7278L119.527 31.4927H117.172L116.65 32.7278C116.576 32.9152 116.585 33.0688 116.681 33.1856C116.776 33.3023 116.896 33.3607 117.043 33.3607H117.123V33.4621H114.972V33.3607H115.061C115.214 33.3607 115.368 33.3146 115.522 33.2194C115.676 33.1241 115.805 32.9859 115.903 32.7984L118.227 27.5417C118.54 26.878 118.709 26.4387 118.731 26.2236H118.826V26.2267ZM117.348 31.0718H119.358L118.383 28.5985L117.348 31.0718Z" fill="url(#paint14_linear_616_289)"/>
<path d="M131.324 26.4279H134.369V26.5293H134.179C134.01 26.5293 133.868 26.5877 133.745 26.7044C133.626 26.8212 133.561 26.9655 133.555 27.1315V32.3176C133.555 32.5449 133.564 32.7661 133.586 32.9812C133.607 33.1963 133.626 33.353 133.647 33.4543L133.678 33.6049H133.589L128.511 28.769V32.76C128.511 32.929 128.573 33.0703 128.693 33.1871C128.812 33.3038 128.957 33.3622 129.126 33.3622H129.316V33.4636H126.271V33.3622H126.452C126.627 33.3622 126.775 33.3038 126.894 33.1871C127.014 33.0703 127.076 32.9228 127.076 32.7508V27.5339C127.076 27.3127 127.067 27.0977 127.045 26.8857C127.024 26.6737 127.005 26.5231 126.984 26.4279L126.962 26.2773H127.051L132.129 31.1132V27.1437C132.123 26.9686 132.058 26.8242 131.938 26.7075C131.818 26.5907 131.674 26.5324 131.505 26.5324H131.324V26.4279Z" fill="url(#paint15_linear_616_289)"/>
<path d="M138.444 26.4258H142.096C143.282 26.4258 144.22 26.7422 144.911 27.3721C145.603 28.0019 145.947 28.8591 145.947 29.9467C145.947 31.0343 145.603 31.8915 144.911 32.5213C144.22 33.1511 143.282 33.4676 142.096 33.4676H138.444V33.3662H138.576C138.752 33.3662 138.899 33.3048 139.025 33.1788C139.148 33.0559 139.216 32.9054 139.222 32.7302V27.1017C139.222 26.9419 139.157 26.8068 139.025 26.6961C138.896 26.5855 138.746 26.5302 138.576 26.5302H138.444V26.4258ZM140.725 26.8467V33.0282H141.961C142.686 33.0282 143.255 32.7517 143.676 32.1987C144.094 31.6457 144.303 30.893 144.303 29.9436C144.303 28.9912 144.094 28.2385 143.676 27.6824C143.258 27.1263 142.686 26.8467 141.961 26.8467H140.725Z" fill="url(#paint16_linear_616_289)"/>
<defs>
<linearGradient id="paint0_linear_616_289" x1="1.00607" y1="17.9992" x2="55.8467" y2="17.9992" gradientUnits="userSpaceOnUse">
<stop stop-color="#F7E57E"/>
<stop offset="0.0523" stop-color="#D4B25A"/>
<stop offset="0.1275" stop-color="#A46D29"/>
<stop offset="0.1708" stop-color="#B4853A"/>
<stop offset="0.257" stop-color="#D1AE57"/>
<stop offset="0.3353" stop-color="#E6CC6C"/>
<stop offset="0.4022" stop-color="#F2DE79"/>
<stop offset="0.4497" stop-color="#F7E57E"/>
<stop offset="0.5165" stop-color="#F3DF7A"/>
<stop offset="0.6025" stop-color="#E8CF6F"/>
<stop offset="0.6991" stop-color="#D6B55C"/>
<stop offset="0.8025" stop-color="#BC9042"/>
<stop offset="0.8863" stop-color="#A46D29"/>
<stop offset="0.9016" stop-color="#B4853A"/>
<stop offset="0.932" stop-color="#D1AE57"/>
<stop offset="0.9596" stop-color="#E6CC6C"/>
<stop offset="0.9832" stop-color="#F2DE79"/>
<stop offset="1" stop-color="#F7E57E"/>
</linearGradient>
<linearGradient id="paint1_linear_616_289" x1="73.9891" y1="-9.74817" x2="73.9891" y2="23.3468" gradientUnits="userSpaceOnUse">
<stop stop-color="#F7E57E"/>
<stop offset="0.0523" stop-color="#D4B25A"/>
<stop offset="0.1275" stop-color="#A46D29"/>
<stop offset="0.1708" stop-color="#B4853A"/>
<stop offset="0.257" stop-color="#D1AE57"/>
<stop offset="0.3353" stop-color="#E6CC6C"/>
<stop offset="0.4022" stop-color="#F2DE79"/>
<stop offset="0.4497" stop-color="#F7E57E"/>
<stop offset="0.5165" stop-color="#F3DF7A"/>
<stop offset="0.6025" stop-color="#E8CF6F"/>
<stop offset="0.6991" stop-color="#D6B55C"/>
<stop offset="0.8025" stop-color="#BC9042"/>
<stop offset="0.8863" stop-color="#A46D29"/>
<stop offset="0.9016" stop-color="#B4853A"/>
<stop offset="0.932" stop-color="#D1AE57"/>
<stop offset="0.9596" stop-color="#E6CC6C"/>
<stop offset="0.9832" stop-color="#F2DE79"/>
<stop offset="1" stop-color="#F7E57E"/>
</linearGradient>
<linearGradient id="paint2_linear_616_289" x1="64.2278" y1="12.0965" x2="83.7502" y2="12.0965" gradientUnits="userSpaceOnUse">
<stop stop-color="#F7E57E"/>
<stop offset="0.0168" stop-color="#F2DE79"/>
<stop offset="0.0404" stop-color="#E6CC6C"/>
<stop offset="0.068" stop-color="#D1AE57"/>
<stop offset="0.0984" stop-color="#B4853A"/>
<stop offset="0.1137" stop-color="#A46D29"/>
<stop offset="0.1976" stop-color="#BC9042"/>
<stop offset="0.3009" stop-color="#D6B55C"/>
<stop offset="0.3975" stop-color="#E8CF6F"/>
<stop offset="0.4835" stop-color="#F3DF7A"/>
<stop offset="0.5503" stop-color="#F7E57E"/>
<stop offset="0.5978" stop-color="#F2DE79"/>
<stop offset="0.6647" stop-color="#E6CC6C"/>
<stop offset="0.743" stop-color="#D1AE57"/>
<stop offset="0.8292" stop-color="#B4853A"/>
<stop offset="0.8725" stop-color="#A46D29"/>
<stop offset="0.9477" stop-color="#D4B25A"/>
<stop offset="1" stop-color="#F7E57E"/>
</linearGradient>
<linearGradient id="paint3_linear_616_289" x1="97.6696" y1="-9.7478" x2="97.6696" y2="23.3471" gradientUnits="userSpaceOnUse">
<stop stop-color="#F7E57E"/>
<stop offset="0.0523" stop-color="#D4B25A"/>
<stop offset="0.1275" stop-color="#A46D29"/>
<stop offset="0.1708" stop-color="#B4853A"/>
<stop offset="0.257" stop-color="#D1AE57"/>
<stop offset="0.3353" stop-color="#E6CC6C"/>
<stop offset="0.4022" stop-color="#F2DE79"/>
<stop offset="0.4497" stop-color="#F7E57E"/>
<stop offset="0.5165" stop-color="#F3DF7A"/>
<stop offset="0.6025" stop-color="#E8CF6F"/>
<stop offset="0.6991" stop-color="#D6B55C"/>
<stop offset="0.8025" stop-color="#BC9042"/>
<stop offset="0.8863" stop-color="#A46D29"/>
<stop offset="0.9016" stop-color="#B4853A"/>
<stop offset="0.932" stop-color="#D1AE57"/>
<stop offset="0.9596" stop-color="#E6CC6C"/>
<stop offset="0.9832" stop-color="#F2DE79"/>
<stop offset="1" stop-color="#F7E57E"/>
</linearGradient>
<linearGradient id="paint4_linear_616_289" x1="87.3443" y1="12.097" x2="107.995" y2="12.097" gradientUnits="userSpaceOnUse">
<stop stop-color="#F7E57E"/>
<stop offset="0.0168" stop-color="#F2DE79"/>
<stop offset="0.0404" stop-color="#E6CC6C"/>
<stop offset="0.068" stop-color="#D1AE57"/>
<stop offset="0.0984" stop-color="#B4853A"/>
<stop offset="0.1137" stop-color="#A46D29"/>
<stop offset="0.1976" stop-color="#BC9042"/>
<stop offset="0.3009" stop-color="#D6B55C"/>
<stop offset="0.3975" stop-color="#E8CF6F"/>
<stop offset="0.4835" stop-color="#F3DF7A"/>
<stop offset="0.5503" stop-color="#F7E57E"/>
<stop offset="0.5978" stop-color="#F2DE79"/>
<stop offset="0.6647" stop-color="#E6CC6C"/>
<stop offset="0.743" stop-color="#D1AE57"/>
<stop offset="0.8292" stop-color="#B4853A"/>
<stop offset="0.8725" stop-color="#A46D29"/>
<stop offset="0.9477" stop-color="#D4B25A"/>
<stop offset="1" stop-color="#F7E57E"/>
</linearGradient>
<linearGradient id="paint5_linear_616_289" x1="121.522" y1="-9.74623" x2="121.522" y2="23.3487" gradientUnits="userSpaceOnUse">
<stop stop-color="#F7E57E"/>
<stop offset="0.0523" stop-color="#D4B25A"/>
<stop offset="0.1275" stop-color="#A46D29"/>
<stop offset="0.1708" stop-color="#B4853A"/>
<stop offset="0.257" stop-color="#D1AE57"/>
<stop offset="0.3353" stop-color="#E6CC6C"/>
<stop offset="0.4022" stop-color="#F2DE79"/>
<stop offset="0.4497" stop-color="#F7E57E"/>
<stop offset="0.5165" stop-color="#F3DF7A"/>
<stop offset="0.6025" stop-color="#E8CF6F"/>
<stop offset="0.6991" stop-color="#D6B55C"/>
<stop offset="0.8025" stop-color="#BC9042"/>
<stop offset="0.8863" stop-color="#A46D29"/>
<stop offset="0.9016" stop-color="#B4853A"/>
<stop offset="0.932" stop-color="#D1AE57"/>
<stop offset="0.9596" stop-color="#E6CC6C"/>
<stop offset="0.9832" stop-color="#F2DE79"/>
<stop offset="1" stop-color="#F7E57E"/>
</linearGradient>
<linearGradient id="paint6_linear_616_289" x1="111.484" y1="12.0985" x2="131.557" y2="12.0985" gradientUnits="userSpaceOnUse">
<stop stop-color="#F7E57E"/>
<stop offset="0.0168" stop-color="#F2DE79"/>
<stop offset="0.0404" stop-color="#E6CC6C"/>
<stop offset="0.068" stop-color="#D1AE57"/>
<stop offset="0.0984" stop-color="#B4853A"/>
<stop offset="0.1137" stop-color="#A46D29"/>
<stop offset="0.1976" stop-color="#BC9042"/>
<stop offset="0.3009" stop-color="#D6B55C"/>
<stop offset="0.3975" stop-color="#E8CF6F"/>
<stop offset="0.4835" stop-color="#F3DF7A"/>
<stop offset="0.5503" stop-color="#F7E57E"/>
<stop offset="0.5978" stop-color="#F2DE79"/>
<stop offset="0.6647" stop-color="#E6CC6C"/>
<stop offset="0.743" stop-color="#D1AE57"/>
<stop offset="0.8292" stop-color="#B4853A"/>
<stop offset="0.8725" stop-color="#A46D29"/>
<stop offset="0.9477" stop-color="#D4B25A"/>
<stop offset="1" stop-color="#F7E57E"/>
</linearGradient>
<linearGradient id="paint7_linear_616_289" x1="141.556" y1="-9.749" x2="141.556" y2="23.3459" gradientUnits="userSpaceOnUse">
<stop stop-color="#F7E57E"/>
<stop offset="0.0523" stop-color="#D4B25A"/>
<stop offset="0.1275" stop-color="#A46D29"/>
<stop offset="0.1708" stop-color="#B4853A"/>
<stop offset="0.257" stop-color="#D1AE57"/>
<stop offset="0.3353" stop-color="#E6CC6C"/>
<stop offset="0.4022" stop-color="#F2DE79"/>
<stop offset="0.4497" stop-color="#F7E57E"/>
<stop offset="0.5165" stop-color="#F3DF7A"/>
<stop offset="0.6025" stop-color="#E8CF6F"/>
<stop offset="0.6991" stop-color="#D6B55C"/>
<stop offset="0.8025" stop-color="#BC9042"/>
<stop offset="0.8863" stop-color="#A46D29"/>
<stop offset="0.9016" stop-color="#B4853A"/>
<stop offset="0.932" stop-color="#D1AE57"/>
<stop offset="0.9596" stop-color="#E6CC6C"/>
<stop offset="0.9832" stop-color="#F2DE79"/>
<stop offset="1" stop-color="#F7E57E"/>
</linearGradient>
<linearGradient id="paint8_linear_616_289" x1="131.401" y1="11.8341" x2="151.711" y2="11.8341" gradientUnits="userSpaceOnUse">
<stop stop-color="#F7E57E"/>
<stop offset="0.0168" stop-color="#F2DE79"/>
<stop offset="0.0404" stop-color="#E6CC6C"/>
<stop offset="0.068" stop-color="#D1AE57"/>
<stop offset="0.0984" stop-color="#B4853A"/>
<stop offset="0.1137" stop-color="#A46D29"/>
<stop offset="0.1976" stop-color="#BC9042"/>
<stop offset="0.3009" stop-color="#D6B55C"/>
<stop offset="0.3975" stop-color="#E8CF6F"/>
<stop offset="0.4835" stop-color="#F3DF7A"/>
<stop offset="0.5503" stop-color="#F7E57E"/>
<stop offset="0.5978" stop-color="#F2DE79"/>
<stop offset="0.6647" stop-color="#E6CC6C"/>
<stop offset="0.743" stop-color="#D1AE57"/>
<stop offset="0.8292" stop-color="#B4853A"/>
<stop offset="0.8725" stop-color="#A46D29"/>
<stop offset="0.9477" stop-color="#D4B25A"/>
<stop offset="1" stop-color="#F7E57E"/>
</linearGradient>
<linearGradient id="paint9_linear_616_289" x1="163.596" y1="-9.74622" x2="163.596" y2="23.3487" gradientUnits="userSpaceOnUse">
<stop stop-color="#F7E57E"/>
<stop offset="0.0523" stop-color="#D4B25A"/>
<stop offset="0.1275" stop-color="#A46D29"/>
<stop offset="0.1708" stop-color="#B4853A"/>
<stop offset="0.257" stop-color="#D1AE57"/>
<stop offset="0.3353" stop-color="#E6CC6C"/>
<stop offset="0.4022" stop-color="#F2DE79"/>
<stop offset="0.4497" stop-color="#F7E57E"/>
<stop offset="0.5165" stop-color="#F3DF7A"/>
<stop offset="0.6025" stop-color="#E8CF6F"/>
<stop offset="0.6991" stop-color="#D6B55C"/>
<stop offset="0.8025" stop-color="#BC9042"/>
<stop offset="0.8863" stop-color="#A46D29"/>
<stop offset="0.9016" stop-color="#B4853A"/>
<stop offset="0.932" stop-color="#D1AE57"/>
<stop offset="0.9596" stop-color="#E6CC6C"/>
<stop offset="0.9832" stop-color="#F2DE79"/>
<stop offset="1" stop-color="#F7E57E"/>
</linearGradient>
<linearGradient id="paint10_linear_616_289" x1="156.197" y1="12.0984" x2="170.996" y2="12.0984" gradientUnits="userSpaceOnUse">
<stop stop-color="#F7E57E"/>
<stop offset="0.0168" stop-color="#F2DE79"/>
<stop offset="0.0404" stop-color="#E6CC6C"/>
<stop offset="0.068" stop-color="#D1AE57"/>
<stop offset="0.0984" stop-color="#B4853A"/>
<stop offset="0.1137" stop-color="#A46D29"/>
<stop offset="0.1976" stop-color="#BC9042"/>
<stop offset="0.3009" stop-color="#D6B55C"/>
<stop offset="0.3975" stop-color="#E8CF6F"/>
<stop offset="0.4835" stop-color="#F3DF7A"/>
<stop offset="0.5503" stop-color="#F7E57E"/>
<stop offset="0.5978" stop-color="#F2DE79"/>
<stop offset="0.6647" stop-color="#E6CC6C"/>
<stop offset="0.743" stop-color="#D1AE57"/>
<stop offset="0.8292" stop-color="#B4853A"/>
<stop offset="0.8725" stop-color="#A46D29"/>
<stop offset="0.9477" stop-color="#D4B25A"/>
<stop offset="1" stop-color="#F7E57E"/>
</linearGradient>
<linearGradient id="paint11_linear_616_289" x1="89.281" y1="29.9452" x2="92.338" y2="29.9452" gradientUnits="userSpaceOnUse">
<stop stop-color="#F6DD7B"/>
<stop offset="0.0977" stop-color="#DAB85C"/>
<stop offset="0.1981" stop-color="#C39942"/>
<stop offset="0.2833" stop-color="#B58632"/>
<stop offset="0.3424" stop-color="#B07F2C"/>
<stop offset="0.3652" stop-color="#B78934"/>
<stop offset="0.4457" stop-color="#CEA74E"/>
<stop offset="0.5304" stop-color="#E0BF62"/>
<stop offset="0.6203" stop-color="#ECD070"/>
<stop offset="0.7188" stop-color="#F4DA78"/>
<stop offset="0.8422" stop-color="#F6DD7B"/>
<stop offset="0.8736" stop-color="#F3D977"/>
<stop offset="0.9067" stop-color="#E9CC6D"/>
<stop offset="0.9405" stop-color="#DAB75B"/>
<stop offset="0.9746" stop-color="#C49A43"/>
<stop offset="1" stop-color="#B07F2C"/>
</linearGradient>
<linearGradient id="paint12_linear_616_289" x1="96.7606" y1="29.9436" x2="101.612" y2="29.9436" gradientUnits="userSpaceOnUse">
<stop stop-color="#F6DD7B"/>
<stop offset="0.0977" stop-color="#DAB85C"/>
<stop offset="0.1981" stop-color="#C39942"/>
<stop offset="0.2833" stop-color="#B58632"/>
<stop offset="0.3424" stop-color="#B07F2C"/>
<stop offset="0.3652" stop-color="#B78934"/>
<stop offset="0.4457" stop-color="#CEA74E"/>
<stop offset="0.5304" stop-color="#E0BF62"/>
<stop offset="0.6203" stop-color="#ECD070"/>
<stop offset="0.7188" stop-color="#F4DA78"/>
<stop offset="0.8422" stop-color="#F6DD7B"/>
<stop offset="0.8736" stop-color="#F3D977"/>
<stop offset="0.9067" stop-color="#E9CC6D"/>
<stop offset="0.9405" stop-color="#DAB75B"/>
<stop offset="0.9746" stop-color="#C49A43"/>
<stop offset="1" stop-color="#B07F2C"/>
</linearGradient>
<linearGradient id="paint13_linear_616_289" x1="105.953" y1="29.9452" x2="111.624" y2="29.9452" gradientUnits="userSpaceOnUse">
<stop stop-color="#F6DD7B"/>
<stop offset="0.0977" stop-color="#DAB85C"/>
<stop offset="0.1981" stop-color="#C39942"/>
<stop offset="0.2833" stop-color="#B58632"/>
<stop offset="0.3424" stop-color="#B07F2C"/>
<stop offset="0.3652" stop-color="#B78934"/>
<stop offset="0.4457" stop-color="#CEA74E"/>
<stop offset="0.5304" stop-color="#E0BF62"/>
<stop offset="0.6203" stop-color="#ECD070"/>
<stop offset="0.7188" stop-color="#F4DA78"/>
<stop offset="0.8422" stop-color="#F6DD7B"/>
<stop offset="0.8736" stop-color="#F3D977"/>
<stop offset="0.9067" stop-color="#E9CC6D"/>
<stop offset="0.9405" stop-color="#DAB75B"/>
<stop offset="0.9746" stop-color="#C49A43"/>
<stop offset="1" stop-color="#B07F2C"/>
</linearGradient>
<linearGradient id="paint14_linear_616_289" x1="114.974" y1="29.8441" x2="122.757" y2="29.8441" gradientUnits="userSpaceOnUse">
<stop stop-color="#F6DD7B"/>
<stop offset="0.0977" stop-color="#DAB85C"/>
<stop offset="0.1981" stop-color="#C39942"/>
<stop offset="0.2833" stop-color="#B58632"/>
<stop offset="0.3424" stop-color="#B07F2C"/>
<stop offset="0.3652" stop-color="#B78934"/>
<stop offset="0.4457" stop-color="#CEA74E"/>
<stop offset="0.5304" stop-color="#E0BF62"/>
<stop offset="0.6203" stop-color="#ECD070"/>
<stop offset="0.7188" stop-color="#F4DA78"/>
<stop offset="0.8422" stop-color="#F6DD7B"/>
<stop offset="0.8736" stop-color="#F3D977"/>
<stop offset="0.9067" stop-color="#E9CC6D"/>
<stop offset="0.9405" stop-color="#DAB75B"/>
<stop offset="0.9746" stop-color="#C49A43"/>
<stop offset="1" stop-color="#B07F2C"/>
</linearGradient>
<linearGradient id="paint15_linear_616_289" x1="126.267" y1="29.9411" x2="134.372" y2="29.9411" gradientUnits="userSpaceOnUse">
<stop stop-color="#F6DD7B"/>
<stop offset="0.0977" stop-color="#DAB85C"/>
<stop offset="0.1981" stop-color="#C39942"/>
<stop offset="0.2833" stop-color="#B58632"/>
<stop offset="0.3424" stop-color="#B07F2C"/>
<stop offset="0.3652" stop-color="#B78934"/>
<stop offset="0.4457" stop-color="#CEA74E"/>
<stop offset="0.5304" stop-color="#E0BF62"/>
<stop offset="0.6203" stop-color="#ECD070"/>
<stop offset="0.7188" stop-color="#F4DA78"/>
<stop offset="0.8422" stop-color="#F6DD7B"/>
<stop offset="0.8736" stop-color="#F3D977"/>
<stop offset="0.9067" stop-color="#E9CC6D"/>
<stop offset="0.9405" stop-color="#DAB75B"/>
<stop offset="0.9746" stop-color="#C49A43"/>
<stop offset="1" stop-color="#B07F2C"/>
</linearGradient>
<linearGradient id="paint16_linear_616_289" x1="138.444" y1="29.944" x2="145.945" y2="29.944" gradientUnits="userSpaceOnUse">
<stop stop-color="#F6DD7B"/>
<stop offset="0.0977" stop-color="#DAB85C"/>
<stop offset="0.1981" stop-color="#C39942"/>
<stop offset="0.2833" stop-color="#B58632"/>
<stop offset="0.3424" stop-color="#B07F2C"/>
<stop offset="0.3652" stop-color="#B78934"/>
<stop offset="0.4457" stop-color="#CEA74E"/>
<stop offset="0.5304" stop-color="#E0BF62"/>
<stop offset="0.6203" stop-color="#ECD070"/>
<stop offset="0.7188" stop-color="#F4DA78"/>
<stop offset="0.8422" stop-color="#F6DD7B"/>
<stop offset="0.8736" stop-color="#F3D977"/>
<stop offset="0.9067" stop-color="#E9CC6D"/>
<stop offset="0.9405" stop-color="#DAB75B"/>
<stop offset="0.9746" stop-color="#C49A43"/>
<stop offset="1" stop-color="#B07F2C"/>
</linearGradient>
</defs>
</svg>
