<svg width="171" height="36" viewBox="0 0 171 36" fill="none" xmlns="http://www.w3.org/2000/svg">
<path fill-rule="evenodd" clip-rule="evenodd" d="M14.6959 19.0468C15.9868 21.8334 16.8259 24.617 17.1947 25.935C17.7572 27.9566 17.9109 31.2901 19.168 32.4023C20.4589 33.5513 22.7457 34.9861 23.7385 36C24.6728 31.5175 24.8972 19.5353 28.5456 14.4076C31.8221 18.8778 33.2452 29.5573 32.9224 36C42.7303 29.7693 36.1651 30.9061 42.6474 17.8978C43.9168 15.3385 46.2957 11.3444 49.5599 11.3352C54.5361 11.3107 53.5679 17.7564 47.9678 16.8593C50.3713 19.9194 55.3106 18.0084 55.7901 14.1679C56.8659 5.41482 41.0429 3.82642 35.993 24.0209C35.8854 23.7444 35.8024 23.4218 35.7164 23.0654C34.9018 19.7657 33.0485 15.234 31.4471 12.1863C31.1367 11.5995 30.9215 11.2062 30.5742 10.644C32.7995 6.29044 37.1394 1.31939 43.0623 0.158042C34.0689 -1.14463 30.3222 5.99242 28.4442 7.40263C26.723 6.21977 22.8809 -1.16922 13.8046 0.170325C19.5338 1.34089 23.6955 5.37181 26.3879 10.4658C25.9207 11.3383 25.4659 12.1986 25.0233 13.0711C24.4362 14.2662 23.886 15.4983 23.4219 16.8501C22.6812 18.6904 21.9281 20.9025 21.3534 22.8289C21.2212 23.2467 21.089 23.6645 20.8862 23.9994C20.502 22.3373 19.9057 20.8564 19.3432 19.48L19.3186 19.4431L19.1619 19.0591C12.99 4.31799 0.0593362 6.34882 1.05211 14.3C1.5193 18.1374 6.45861 20.0515 8.86218 16.9914C3.26513 17.8885 2.30615 11.4428 7.28234 11.455C10.5373 11.4673 12.9163 15.4737 14.1826 18.0299C14.3732 18.377 14.5422 18.7119 14.6959 19.0468Z" fill="#0E1824"/>
<path d="M71.3943 4.07024H70.2662C70.2293 4.07024 70.2047 4.07024 70.1863 4.07024V19.3613C70.2047 19.816 70.3738 20.2062 70.6965 20.5288C71.0193 20.8514 71.4096 21.0142 71.8645 21.0142H72.2057V21.2754H64.2296V21.0142H64.5708C65.2009 21.0142 65.6804 20.7439 66.0124 20.2001C66.1537 19.9543 66.2306 19.6839 66.249 19.3859V4.82911C66.2306 4.37441 66.0615 3.98729 65.7357 3.66163C65.413 3.33903 65.0227 3.17619 64.5678 3.17619H64.2266V2.91504H73.2261C74.9228 2.91504 76.3581 3.28065 77.5292 4.01801C78.1224 4.38669 78.5957 4.89671 78.9461 5.55112C79.2965 6.20552 79.4717 7.06271 79.4717 8.12267C79.4717 9.17955 79.1029 10.1996 78.3683 11.1797C77.6337 12.1597 76.5672 12.7189 75.1656 12.8571C76.1799 13.189 77.0712 13.9601 77.8427 15.1645C79.733 18.1907 81.1315 19.9911 82.0413 20.5687C82.4962 20.8483 83.0648 20.9958 83.7471 21.0142V21.2754H81.1745C79.653 21.2754 78.3898 21.0757 77.3816 20.6732C76.3766 20.2707 75.5836 19.5641 75.0058 18.5502C74.6738 17.9726 73.9484 16.4794 72.8266 14.0646C72.3379 12.9985 71.7416 12.4117 71.0439 12.3072V12.046H71.8584C72.6452 12.046 73.3399 11.8095 73.9454 11.3394C74.5478 10.8663 74.9566 10.0982 75.1656 9.03208C75.2363 8.6634 75.2701 8.37767 75.2701 8.16567C75.2701 6.73089 74.9812 5.69551 74.4033 5.05646C73.8255 4.41742 73.0817 4.09175 72.1719 4.07332C72.0059 4.07025 71.7446 4.07024 71.3943 4.07024Z" fill="#0E1824"/>
<path d="M73.232 2.91895H64.2324V3.1801H64.5736C65.0285 3.1801 65.4158 3.34293 65.7416 3.66552C66.0643 3.98812 66.2364 4.37831 66.2549 4.83302V19.3898C66.2364 19.6878 66.1596 19.9582 66.0182 20.204C65.6863 20.7447 65.2037 21.0181 64.5767 21.0181H64.2355V21.2793H72.2116V21.0181H71.8704C71.4155 21.0181 71.0251 20.8553 70.7024 20.5327C70.3797 20.2101 70.2075 19.8199 70.1922 19.3652V4.07107C70.2106 4.07107 70.2352 4.07107 70.2721 4.07107H71.4001C71.7505 4.07107 72.0117 4.07107 72.1869 4.07107C73.0967 4.08951 73.8405 4.41518 74.4184 5.05423C74.9962 5.69328 75.2852 6.72865 75.2852 8.16344C75.2852 8.37236 75.2483 8.66116 75.1806 9.02984C74.9716 10.0959 74.5628 10.8671 73.9604 11.3372C73.358 11.8103 72.6603 12.0438 71.8734 12.0438H71.0589V12.305C71.7597 12.4094 72.3529 12.9962 72.8416 14.0623C73.9604 16.4741 74.6858 17.9704 75.0208 18.548C75.5987 19.5618 76.3886 20.2715 77.3967 20.6709C78.4018 21.0734 79.6651 21.2731 81.1896 21.2731H83.7622V21.012C83.0798 20.9935 82.5112 20.8461 82.0563 20.5665C81.1465 19.9889 79.7481 18.1885 77.8578 15.1622C77.0863 13.9548 76.1949 13.1867 75.1806 12.8549C76.5791 12.7136 77.6457 12.1544 78.3834 11.1774C79.118 10.1973 79.4868 9.18038 79.4868 8.12042C79.4868 7.06354 79.3116 6.20635 78.9612 5.54887C78.6108 4.89446 78.1405 4.38138 77.5443 4.01577C76.3609 3.28456 74.9286 2.91895 73.232 2.91895Z" fill="#0E1824"/>
<path d="M90.1435 5.12234C92.0061 3.40797 94.5173 2.55078 97.6739 2.55078C100.83 2.55078 103.342 3.40797 105.204 5.12234C107.067 6.83671 107.998 9.16247 107.998 12.0996C107.998 15.0368 107.067 17.3626 105.204 19.0769C103.342 20.7913 100.83 21.6485 97.6739 21.6485C94.5173 21.6485 92.0061 20.7913 90.1435 19.0769C88.2809 17.3626 87.3496 15.0368 87.3496 12.0996C87.3496 9.16247 88.2809 6.83671 90.1435 5.12234ZM93.2663 18.275C94.3421 19.7866 95.8082 20.5424 97.6616 20.5424C99.515 20.5424 100.984 19.7866 102.069 18.275C103.154 16.7635 103.695 14.705 103.695 12.0966C103.695 9.49121 103.154 7.43274 102.069 5.91808C100.984 4.40648 99.515 3.65069 97.6616 3.65069C95.8082 3.65069 94.3421 4.40648 93.2663 5.91808C92.1906 7.42967 91.6527 9.49121 91.6527 12.0966C91.6527 14.705 92.1906 16.7635 93.2663 18.275Z" fill="#0E1824"/>
<path d="M97.6739 2.55078C94.5173 2.55078 92.0061 3.40797 90.1435 5.12234C88.2809 6.83671 87.3496 9.16247 87.3496 12.0996C87.3496 15.0368 88.2809 17.3626 90.1435 19.0769C92.0061 20.7913 94.5173 21.6485 97.6739 21.6485C100.83 21.6485 103.342 20.7913 105.204 19.0769C107.067 17.3626 107.998 15.0368 107.998 12.0996C107.998 9.16247 107.067 6.83671 105.204 5.12234C103.342 3.40797 100.83 2.55078 97.6739 2.55078ZM97.6616 20.5455C95.8082 20.5455 94.3421 19.7897 93.2663 18.2781C92.1906 16.7665 91.6527 14.7081 91.6527 12.0996C91.6527 9.49428 92.1906 7.43581 93.2663 5.92114C94.3421 4.40955 95.8082 3.65376 97.6616 3.65376C99.515 3.65376 100.984 4.40955 102.069 5.92114C103.154 7.43274 103.695 9.49428 103.695 12.0996C103.695 14.705 103.154 16.7634 102.069 18.2781C100.984 19.7897 99.515 20.5455 97.6616 20.5455Z" fill="#0E1824"/>
<path d="M131.561 3.17927H131.195C130.67 3.17927 130.172 3.32673 129.699 3.62475C129.225 3.92277 128.85 4.27916 128.571 4.70007L123.401 12.937V19.3644C123.401 19.8191 123.567 20.2093 123.899 20.5319C124.231 20.8545 124.624 21.0173 125.079 21.0173H125.392L125.42 21.2784H117.444V21.0173H117.785C118.24 21.0173 118.627 20.8606 118.953 20.5442C119.276 20.2308 119.448 19.8437 119.464 19.3889V12.9094L114.45 4.67242C114.189 4.25151 113.817 3.89819 113.335 3.60939C112.852 3.32059 112.36 3.17619 111.853 3.17619H111.484V2.91504H120.17V3.17619H119.829C119.445 3.17619 119.147 3.35131 118.938 3.70156C118.833 3.89512 118.781 4.08254 118.781 4.26688C118.781 4.45122 118.824 4.62941 118.913 4.80454L122.666 11.6251L126.576 4.80454C126.662 4.62941 126.708 4.45122 126.708 4.26688C126.708 4.08254 126.647 3.90434 126.524 3.72922C126.315 3.36054 126.016 3.17927 125.632 3.17927H125.319V2.91811H131.564V3.17927H131.561Z" fill="#0E1824"/>
<path d="M131.56 2.91811H125.315V3.17927H125.628C126.013 3.17927 126.311 3.36361 126.52 3.72922C126.643 3.90434 126.704 4.08254 126.704 4.26688C126.704 4.45122 126.661 4.62941 126.572 4.80454L122.662 11.6251L118.909 4.80454C118.82 4.62941 118.777 4.45122 118.777 4.26688C118.777 4.08254 118.829 3.89512 118.934 3.70156C119.143 3.35131 119.441 3.17619 119.825 3.17619H120.167V2.91504H111.48V3.17619H111.849C112.356 3.17619 112.851 3.32059 113.331 3.60939C113.81 3.89819 114.185 4.25151 114.447 4.67242L119.46 12.9094V19.3889C119.441 19.8437 119.272 20.2277 118.949 20.5442C118.627 20.8606 118.236 21.0173 117.781 21.0173H117.44V21.2784H125.416L125.389 21.0173H125.075C124.62 21.0173 124.227 20.8545 123.895 20.5319C123.563 20.2093 123.397 19.8191 123.397 19.3644V12.937L128.567 4.70007C128.846 4.27916 129.221 3.92277 129.695 3.62475C130.168 3.32673 130.666 3.17927 131.192 3.17927H131.557V2.91811H131.56Z" fill="#0E1824"/>
<path d="M151.478 21.0134H151.715V21.2745H143.345V21.0134H143.582C143.966 21.0134 144.252 20.8966 144.433 20.66C144.618 20.4235 144.71 20.2023 144.71 19.9903C144.71 19.7814 144.667 19.5694 144.578 19.3604L143.293 16.1345H137.152L135.787 19.3604C135.698 19.5878 135.655 19.8029 135.655 20.0026C135.655 20.2053 135.75 20.4235 135.944 20.657C136.135 20.8935 136.424 21.0103 136.811 21.0103H137.02V21.2714H131.404V21.0103H131.641C132.044 21.0103 132.446 20.8874 132.849 20.6416C133.252 20.3958 133.583 20.0302 133.845 19.5386L139.906 5.82063C140.727 4.0909 141.166 2.94491 141.218 2.38574H141.455L149.247 19.4864C149.508 19.9933 149.84 20.3743 150.242 20.6263C150.648 20.8874 151.06 21.0134 151.478 21.0134ZM137.598 15.0346H142.844L140.299 8.58266L137.598 15.0346Z" fill="#0E1824"/>
<path d="M141.455 2.3916H141.218C141.166 2.95077 140.73 4.09675 139.906 5.82648L133.845 19.5445C133.583 20.033 133.252 20.4017 132.849 20.6475C132.446 20.8933 132.044 21.0161 131.641 21.0161H131.404V21.2773H137.02V21.0161H136.811C136.427 21.0161 136.138 20.8994 135.944 20.6628C135.75 20.4263 135.655 20.2081 135.655 20.0084C135.655 19.8087 135.698 19.5937 135.787 19.3663L137.152 16.1403H143.293L144.578 19.3663C144.664 19.5752 144.71 19.7872 144.71 19.9961C144.71 20.205 144.618 20.4293 144.433 20.6659C144.249 20.9025 143.966 21.0192 143.582 21.0192H143.345V21.2804H151.715V21.0192H151.478C151.057 21.0192 150.648 20.8933 150.246 20.6382C149.843 20.3863 149.511 20.0053 149.25 19.4984L141.455 2.3916ZM137.598 15.0343L140.299 8.58237L142.844 15.0343H137.598Z" fill="#0E1824"/>
<path d="M156.542 21.0142C156.997 21.0142 157.384 20.8514 157.71 20.5288C158.033 20.2062 158.205 19.816 158.224 19.3613V4.82911C158.205 4.37441 158.036 3.98729 157.71 3.66163C157.388 3.33903 156.997 3.17619 156.542 3.17619H156.201V2.91504H164.177L164.15 3.17619H163.836C163.381 3.17619 162.988 3.33903 162.656 3.66163C162.324 3.98422 162.158 4.37441 162.158 4.82911V20.1478H165.594C166.87 20.1478 167.942 19.7822 168.809 19.0448C169.676 18.3106 170.318 17.269 170.739 15.9233H171.001L169.793 21.2754H156.201V21.0142H156.542Z" fill="#0E1824"/>
<path d="M164.177 2.91895H156.201V3.1801H156.542C156.997 3.1801 157.384 3.34293 157.71 3.66552C158.033 3.98812 158.205 4.37831 158.224 4.83302V19.3652C158.205 19.8199 158.036 20.2101 157.71 20.5327C157.388 20.8553 156.997 21.0181 156.542 21.0181H156.201V21.2793H169.793L171.001 15.9272H170.739C170.318 17.2729 169.676 18.3145 168.809 19.0488C167.942 19.783 166.873 20.1517 165.594 20.1517H162.158V4.83302C162.158 4.37831 162.324 3.99119 162.656 3.66552C162.988 3.34293 163.381 3.1801 163.836 3.1801H164.15L164.177 2.91895Z" fill="#0E1824"/>
<path d="M92.3303 33.3643L92.3395 33.4656H89.2812V33.3643H89.4134C89.5886 33.3643 89.7361 33.3028 89.8622 33.1768C89.9851 33.054 90.0527 32.9034 90.0589 32.7283V27.1489C90.0527 26.9738 89.9882 26.8263 89.8622 26.7065C89.7392 26.5867 89.5886 26.5252 89.4134 26.5252H89.2812V26.4238H92.3395L92.3303 26.5252H92.2104C92.0352 26.5252 91.8846 26.5867 91.7586 26.7065C91.6326 26.8263 91.568 26.9738 91.568 27.1489V32.7283C91.568 32.9034 91.6326 33.0509 91.7586 33.1768C91.8846 33.2997 92.0352 33.3643 92.2104 33.3643H92.3303Z" fill="#0E1824"/>
<path d="M98.7843 28.6116L100.705 29.859C101.342 30.2738 101.643 30.8298 101.609 31.5273C101.575 32.1848 101.323 32.6948 100.856 33.0604C100.386 33.426 99.7494 33.6072 98.9441 33.6072C98.4893 33.6072 98.0682 33.5519 97.6809 33.4413C97.2967 33.3307 97.0108 33.1833 96.8326 32.9928C96.7527 32.7777 96.7373 32.4981 96.7926 32.1479C96.8449 31.8007 96.9401 31.515 97.0754 31.2938H97.1645C97.1246 31.8222 97.2813 32.2738 97.6379 32.6395C97.9944 33.0081 98.4647 33.1894 99.0548 33.1833C99.4851 33.1771 99.8232 33.0665 100.069 32.8576C100.318 32.6456 100.441 32.3783 100.441 32.0496C100.441 31.856 100.38 31.6809 100.257 31.5273C100.134 31.3737 99.9277 31.2016 99.6388 31.0142L97.8899 29.859C97.1799 29.3828 96.8602 28.7806 96.934 28.0494C96.9739 27.5209 97.1799 27.0939 97.5518 26.7744C97.9237 26.4548 98.4216 26.292 99.0456 26.292C99.4144 26.292 99.8693 26.3258 100.413 26.3934H101.046L100.914 27.8712H100.813C100.813 27.524 100.684 27.2444 100.426 27.0324C100.167 26.8204 99.8232 26.716 99.396 26.716C99.0148 26.716 98.7013 26.8081 98.4616 26.9925C98.2188 27.1768 98.0927 27.4072 98.0804 27.6807C98.0743 27.8681 98.1296 28.034 98.2464 28.1723C98.3632 28.3105 98.5415 28.458 98.7843 28.6116Z" fill="#0E1824"/>
<path d="M111.626 31.4164L111.165 33.4656H105.955V33.3643H106.087C106.262 33.3643 106.41 33.3028 106.536 33.1768C106.659 33.054 106.727 32.9034 106.733 32.7283V27.1612C106.727 26.9861 106.662 26.8386 106.536 26.7126C106.413 26.5897 106.262 26.5252 106.087 26.5252H105.955V26.4238H109.013L109.004 26.5252H108.884C108.709 26.5252 108.558 26.5867 108.432 26.7126C108.306 26.8355 108.242 26.9861 108.242 27.1612V33.0324H109.56C110.049 33.0324 110.461 32.8911 110.793 32.6115C111.125 32.332 111.371 31.9325 111.531 31.4164H111.626Z" fill="#0E1824"/>
<path d="M118.825 26.2296L121.813 32.7829C121.914 32.9765 122.04 33.124 122.194 33.2192C122.347 33.3175 122.504 33.3636 122.667 33.3636H122.756V33.465H119.547V33.3636H119.636C119.784 33.3636 119.904 33.3052 119.993 33.1885C120.082 33.0717 120.091 32.9181 120.018 32.7307L119.526 31.4956H117.171L116.649 32.7307C116.575 32.9181 116.584 33.0717 116.68 33.1885C116.775 33.3052 116.895 33.3636 117.042 33.3636H117.122V33.465H114.971V33.3636H115.06C115.213 33.3636 115.367 33.3175 115.521 33.2223C115.675 33.127 115.804 32.9888 115.902 32.8014L118.226 27.5446C118.539 26.881 118.708 26.4416 118.73 26.2266H118.825V26.2296ZM117.347 31.0747H119.357L118.382 28.6015L117.347 31.0747Z" fill="#0E1824"/>
<path d="M131.326 26.4289H134.372V26.5303H134.182C134.013 26.5303 133.871 26.5886 133.748 26.7054C133.629 26.8221 133.564 26.9665 133.558 27.1324V32.3185C133.558 32.5459 133.567 32.7671 133.589 32.9822C133.61 33.1972 133.629 33.3539 133.65 33.4553L133.681 33.6059H133.592L128.514 28.77V32.761C128.514 32.9299 128.576 33.0713 128.695 33.188C128.815 33.3048 128.96 33.3631 129.129 33.3631H129.319V33.4645H126.273V33.3631H126.455C126.63 33.3631 126.777 33.3048 126.897 33.188C127.017 33.0713 127.079 32.9238 127.079 32.7518V27.5349C127.079 27.3137 127.069 27.0986 127.048 26.8866C127.026 26.6747 127.008 26.5241 126.986 26.4289L126.965 26.2783H127.054L132.132 31.1142V27.1447C132.126 26.9696 132.061 26.8252 131.941 26.7085C131.821 26.5917 131.677 26.5333 131.508 26.5333H131.326V26.4289Z" fill="#0E1824"/>
<path d="M138.443 26.4297H142.095C143.281 26.4297 144.219 26.7461 144.91 27.376C145.602 28.0058 145.946 28.863 145.946 29.9506C145.946 31.0382 145.602 31.8954 144.91 32.5252C144.219 33.155 143.281 33.4715 142.095 33.4715H138.443V33.3701H138.576C138.751 33.3701 138.898 33.3087 139.024 33.1827C139.147 33.0598 139.215 32.9093 139.221 32.7341V27.1056C139.221 26.9458 139.156 26.8107 139.024 26.7001C138.895 26.5895 138.745 26.5341 138.576 26.5341H138.443V26.4297ZM140.727 26.8506V33.0322H141.963C142.688 33.0322 143.257 32.7556 143.678 32.2026C144.096 31.6496 144.305 30.8969 144.305 29.9475C144.305 28.9951 144.096 28.2424 143.678 27.6863C143.26 27.1302 142.688 26.8506 141.963 26.8506H140.727Z" fill="#0E1824"/>
</svg>
