<svg width="19" height="19" viewBox="0 0 19 19" fill="none" xmlns="http://www.w3.org/2000/svg">
<g clip-path="url(#clip0_1412_1410)">
<path d="M9.10556 0C5.51062 0 2.58594 2.92468 2.58594 6.51959C2.58594 10.981 8.42036 17.5306 8.66877 17.8072C8.90209 18.0671 9.30946 18.0666 9.54236 17.8072C9.79076 17.5306 15.6252 10.981 15.6252 6.51959C15.6251 2.92468 12.7005 0 9.10556 0ZM9.10556 9.79978C7.29686 9.79978 5.82541 8.32829 5.82541 6.51959C5.82541 4.71089 7.29689 3.23944 9.10556 3.23944C10.9142 3.23944 12.3857 4.71092 12.3857 6.51962C12.3857 8.32833 10.9142 9.79978 9.10556 9.79978Z" fill="#F8F5F0"/>
</g>
<defs>
<clipPath id="clip0_1412_1410">
<rect width="18.002" height="18.002" fill="white" transform="translate(0.105469)"/>
</clipPath>
</defs>
</svg>
