<svg width="24" height="24" viewBox="0 0 24 24" fill="none" xmlns="http://www.w3.org/2000/svg">
<g clip-path="url(#clip0_1130_2650)">
<path d="M12 0C9.61402 0.00316505 7.32668 0.952393 5.63953 2.63953C3.95239 4.32668 3.00317 6.61402 3 9C3 15.4613 11.385 23.5538 11.7413 23.895C11.8105 23.9623 11.9034 24 12 24C12.0966 24 12.1895 23.9623 12.2587 23.895C12.615 23.5538 21 15.4613 21 9C20.9968 6.61402 20.0476 4.32668 18.3605 2.63953C16.6733 0.952393 14.386 0.00316505 12 0ZM12 13.125C11.1842 13.125 10.3866 12.8831 9.70827 12.4298C9.02992 11.9766 8.50121 11.3323 8.189 10.5786C7.87679 9.82482 7.7951 8.99542 7.95426 8.19525C8.11343 7.39508 8.50629 6.66008 9.08318 6.08318C9.66008 5.50629 10.3951 5.11342 11.1953 4.95426C11.9954 4.7951 12.8248 4.87679 13.5786 5.189C14.3323 5.50121 14.9766 6.02992 15.4298 6.70827C15.8831 7.38663 16.125 8.18415 16.125 9C16.1243 10.0938 15.6895 11.1426 14.9161 11.9161C14.1426 12.6895 13.0938 13.1243 12 13.125Z" fill="#A46E29"/>
</g>
<defs>
<clipPath id="clip0_1130_2650">
<rect width="24" height="24" fill="white"/>
</clipPath>
</defs>
</svg>
