<svg width="18" height="18" viewBox="0 0 18 18" fill="none" xmlns="http://www.w3.org/2000/svg">
<g clip-path="url(#clip0_1412_1420)">
<path d="M5.1875 6.03125V17.9996H8.52731V15.8517H9.582V17.9996H12.7625V6.03125H5.1875ZM7.47252 14.7171H6.41776V13.6619H7.47252V14.7171ZM7.47252 12.6065H6.41776V11.5513H7.47252V12.6065ZM7.47252 10.5445H6.41776V9.48932H7.47252V10.5445ZM7.47252 8.43397H6.41776V7.37875H7.47252V8.43397ZM9.58203 14.7171H8.52727V13.6619H9.58203V14.7171ZM9.58203 12.6065H8.52727V11.5513H9.58203V12.6065ZM9.58203 10.5445H8.52727V9.48932H9.58203V10.5445ZM9.58203 8.43397H8.52727V7.37875H9.58203V8.43397ZM11.6915 14.7171H10.6368V13.6619H11.6915V14.7171ZM11.6915 12.6065H10.6368V11.5513H11.6915V12.6065ZM11.6915 10.5445H10.6368V9.48932H11.6915V10.5445ZM10.6368 8.43397V7.37875H11.6915V8.43397H10.6368Z" fill="#F8F5F0"/>
<path d="M3.19887 14.7658V13.7106H4.13114V12.6553H3.19887V11.6H4.13114V10.5447H3.19887V9.48948H4.13114V7.37891H0V8.43412H1.06172V17.9997H4.13114V14.7658H3.19887Z" fill="#F8F5F0"/>
<path d="M18.0008 7.37891H13.8164V9.48948H14.802V10.5447H13.8164V11.6H14.802V12.6553H13.8164V13.7106H14.802V14.7658H13.8164V17.9997H16.9391V8.43412H18.0008V7.37891Z" fill="#F8F5F0"/>
<path d="M13.7851 4.97647H15.0995V1.02955H9.74221V0H8.68752V1.02955H2.90625V4.97647H4.22057H13.7851ZM12.4653 2.22792H13.7482V2.62944H12.9883V2.8144H13.6557V3.19792H12.9883V3.40541H13.7775V3.80696H12.4653V2.22792ZM11.3783 2.19182C11.6872 2.19182 11.9307 2.30463 12.0863 2.50763L11.7503 2.80765C11.6579 2.69033 11.5474 2.62269 11.4053 2.62269C11.1844 2.62269 11.0356 2.77608 11.0356 3.01746C11.0356 3.25884 11.1844 3.4122 11.4053 3.4122C11.5474 3.4122 11.6579 3.34452 11.7503 3.22724L12.0863 3.5273C11.9307 3.73029 11.6872 3.84311 11.3783 3.84311C10.871 3.84311 10.499 3.50248 10.499 3.0175C10.499 2.53245 10.871 2.19182 11.3783 2.19182ZM10.0796 3.80696H9.54748V2.22792H10.0796V3.80696ZM7.86982 2.22792H9.15271V2.62944H8.40191V2.90014H9.06028V3.3017H8.40191V3.80696H7.86982V2.22792ZM6.19213 2.22792H7.47502V2.62944H6.72422V2.90014H7.38259V3.3017H6.72422V3.80696H6.19213V2.22792ZM3.99135 3.01746C3.99135 2.53923 4.36787 2.19185 4.88196 2.19185C5.39602 2.19185 5.77257 2.53923 5.77257 3.01746C5.77257 3.49566 5.39605 3.84307 4.88196 3.84307C4.36787 3.84307 3.99135 3.49566 3.99135 3.01746Z" fill="#F8F5F0"/>
<path d="M5.23141 3.01782C5.23141 2.77193 5.0736 2.62305 4.87743 2.62305C4.68125 2.62305 4.52344 2.77197 4.52344 3.01782C4.52344 3.2637 4.68125 3.41255 4.87743 3.41255C5.0736 3.41255 5.23141 3.26366 5.23141 3.01782Z" fill="#F8F5F0"/>
</g>
<defs>
<clipPath id="clip0_1412_1420">
<rect width="18" height="18" fill="white"/>
</clipPath>
</defs>
</svg>
