<svg width="19" height="18" viewBox="0 0 19 18" fill="none" xmlns="http://www.w3.org/2000/svg">
<g clip-path="url(#clip0_1412_1417)">
<path d="M15.6156 12.5281C14.5283 11.5981 13.4247 11.0347 12.3507 11.9633L11.7094 12.5246C11.2401 12.932 10.3677 14.8356 6.9946 10.9553C3.62219 7.07999 5.62906 6.47659 6.09899 6.07269L6.74383 5.51074C7.81224 4.58 7.40904 3.40834 6.63846 2.20225L6.17345 1.47171C5.39936 0.268434 4.55643 -0.52181 3.48521 0.407517L2.9064 0.913273C2.43296 1.25817 1.10956 2.37926 0.78855 4.50906C0.402208 7.06453 1.62094 9.99089 4.41313 13.2017C7.20182 16.414 9.9322 18.0275 12.5186 17.9994C14.668 17.9762 15.9661 16.8228 16.3722 16.4035L16.9531 15.897C18.0215 14.9684 17.3577 14.0229 16.2696 13.0908L15.6156 12.5281Z" fill="#F8F5F0"/>
</g>
<defs>
<clipPath id="clip0_1412_1417">
<rect width="18" height="18" fill="white" transform="translate(0.105469)"/>
</clipPath>
</defs>
</svg>
