<svg width="24" height="24" viewBox="0 0 24 24" fill="none" xmlns="http://www.w3.org/2000/svg">
<g clip-path="url(#clip0_1130_2656)">
<path d="M23.345 17.6136L19.9958 14.2643C18.7996 13.0681 16.7661 13.5467 16.2876 15.1016C15.9288 16.1782 14.7326 16.7763 13.6561 16.537C11.2637 15.9389 8.03407 12.8289 7.43598 10.317C7.07713 9.24036 7.79483 8.04419 8.87138 7.68538C10.4264 7.20691 10.9049 5.17343 9.7087 3.97726L6.35943 0.627989C5.4025 -0.209329 3.96709 -0.209329 3.12978 0.627989L0.857056 2.90071C-1.41566 5.29305 1.09629 11.6327 6.71828 17.2547C12.3403 22.8767 18.68 25.5083 21.0723 23.116L23.345 20.8432C24.1824 19.8863 24.1824 18.4509 23.345 17.6136Z" fill="#A46E29"/>
</g>
<defs>
<clipPath id="clip0_1130_2656">
<rect width="24" height="24" fill="white"/>
</clipPath>
</defs>
</svg>
