<svg width="19" height="19" viewBox="0 0 19 19" fill="none" xmlns="http://www.w3.org/2000/svg">
<g clip-path="url(#clip0_795_4701)">
<path d="M15.6156 13.1062C14.5283 12.1762 13.4247 11.6128 12.3507 12.5415L11.7094 13.1027C11.2401 13.5101 10.3677 15.4137 6.9946 11.5335C3.62219 7.65811 5.62906 7.05472 6.09899 6.65081L6.74383 6.08886C7.81224 5.15813 7.40904 3.98646 6.63846 2.78037L6.17345 2.04984C5.39936 0.846559 4.55643 0.0563151 3.48521 0.985642L2.9064 1.4914C2.43296 1.8363 1.10956 2.95739 0.78855 5.08718C0.402208 7.64266 1.62094 10.569 4.41313 13.7799C7.20182 16.9921 9.9322 18.6056 12.5186 18.5775C14.668 18.5543 15.9661 17.4009 16.3722 16.9816L16.9531 16.4751C18.0215 15.5465 17.3577 14.601 16.2696 13.6689L15.6156 13.1062Z" fill="url(#paint0_linear_795_4701)"/>
</g>
<defs>
<linearGradient id="paint0_linear_795_4701" x1="1.89306" y1="0.21813" x2="19.2733" y2="18.4414" gradientUnits="userSpaceOnUse">
<stop stop-color="#A46E29"/>
<stop offset="1" stop-color="#F7E47F"/>
</linearGradient>
<clipPath id="clip0_795_4701">
<rect width="18" height="18" fill="white" transform="translate(0.105469 0.578125)"/>
</clipPath>
</defs>
</svg>
