<svg width="16" height="16" viewBox="0 0 16 16" fill="none" xmlns="http://www.w3.org/2000/svg">
<g clip-path="url(#clip0_1121_2054)">
<path d="M4.29502 5.85464H5.91424V10.6581C5.91424 11.1454 6.30939 11.5401 6.79624 11.5401H9.20369C9.69051 11.5401 10.0857 11.1455 10.0857 10.6581V5.85464H11.7044C11.9725 5.85464 12.2136 5.69319 12.3167 5.44538C12.4187 5.19858 12.362 4.91327 12.1725 4.7238L8.46799 1.01885C8.20926 0.760643 7.79011 0.760643 7.53082 1.01885L3.82696 4.7238C3.63745 4.91327 3.58068 5.19809 3.68327 5.44538C3.78632 5.6927 4.02686 5.85464 4.29502 5.85464Z" fill="#A46E29"/>
<path d="M15.2044 7.65527C14.7655 7.65527 14.4094 8.01142 14.4094 8.45081V11.7772C14.4094 12.7737 13.5982 13.5844 12.6017 13.5844H3.39824C2.40172 13.5844 1.59108 12.7737 1.59108 11.7772V8.45081C1.59108 8.01142 1.23445 7.65527 0.79554 7.65527C0.356109 7.65527 0 8.01142 0 8.45085V11.7773C0 13.651 1.52442 15.1755 3.39824 15.1755H12.6017C14.4755 15.1755 16 13.6511 16 11.7773V8.45085C16 8.01142 15.6439 7.65527 15.2044 7.65527Z" fill="#A46E29"/>
</g>
<defs>
<clipPath id="clip0_1121_2054">
<rect width="16" height="16" fill="white"/>
</clipPath>
</defs>
</svg>
